<svg width="96" height="96" viewBox="0 0 96 96" fill="none" xmlns="http://www.w3.org/2000/svg">
<path d="M29.9782 1.00015L29.7454 0.557673V0.557674L29.9782 1.00015ZM6.21688 2.59862L6.42242 2.14282L6.21688 2.59862ZM30.1782 69.2876L30.4174 68.8485H30.4174L30.1782 69.2876ZM33.0218 1.00015L33.2546 0.557674V0.557673L33.0218 1.00015ZM56.7831 2.59862L56.5776 2.14282V2.14282L56.7831 2.59862ZM32.8218 69.2876L32.5826 68.8485H32.5826L32.8218 69.2876ZM62.9166 83.5173C63.0943 83.7287 63.4097 83.756 63.6211 83.5783C63.8324 83.4006 63.8597 83.0852 63.682 82.8738L62.9166 83.5173ZM56.7918 74.6782C56.6141 74.4669 56.2987 74.4396 56.0873 74.6173C55.876 74.795 55.8487 75.1104 56.0264 75.3218L56.7918 74.6782ZM60.795 86.6861C61.0627 86.7536 61.3345 86.5912 61.402 86.3234C61.4695 86.0557 61.3071 85.7839 61.0393 85.7164L60.795 86.6861ZM50.1221 82.9651C49.8543 82.8977 49.5826 83.06 49.5151 83.3278C49.4476 83.5956 49.61 83.8673 49.8777 83.9348L50.1221 82.9651ZM60.5423 90.5957C60.8081 90.5207 60.9627 90.2444 60.8877 89.9786C60.8127 89.7129 60.5364 89.5583 60.2707 89.6333L60.5423 90.5957ZM50.6291 92.355C50.3634 92.43 50.2088 92.7062 50.2838 92.972C50.3588 93.2377 50.6351 93.3924 50.9008 93.3174L50.6291 92.355ZM61.5 15.5C61.2239 15.5 61 15.7239 61 16C61 16.2761 61.2239 16.5 61.5 16.5V15.5ZM61.5 30.5C61.2239 30.5 61 30.7239 61 31C61 31.2761 61.2239 31.5 61.5 31.5V30.5ZM61.5 8.5C61.2239 8.5 61 8.72386 61 9C61 9.27614 61.2239 9.5 61.5 9.5V8.5ZM61.5 12C61.2239 12 61 12.2239 61 12.5C61 12.7761 61.2239 13 61.5 13V12ZM77.625 20C77.9011 20 78.125 19.7761 78.125 19.5C78.125 19.2239 77.9011 19 77.625 19V20ZM61.5 19C61.2239 19 61 19.2239 61 19.5C61 19.7761 61.2239 20 61.5 20V19ZM75 22.5C75.2761 22.5 75.5 22.2761 75.5 22C75.5 21.7239 75.2761 21.5 75 21.5V22.5ZM61.5 21.5C61.2239 21.5 61 21.7239 61 22C61 22.2761 61.2239 22.5 61.5 22.5V21.5ZM80 25C80.2761 25 80.5 24.7761 80.5 24.5C80.5 24.2239 80.2761 24 80 24V25ZM61.5 24C61.2239 24 61 24.2239 61 24.5C61 24.7761 61.2239 25 61.5 25V24ZM78.5 27.5C78.7761 27.5 79 27.2761 79 27C79 26.7239 78.7761 26.5 78.5 26.5V27.5ZM61.5 26.5C61.2239 26.5 61 26.7239 61 27C61 27.2761 61.2239 27.5 61.5 27.5V26.5ZM29.7454 0.557674C25.186 2.95699 21.4441 4.28244 17.8123 4.55116C14.1887 4.81927 10.6268 4.03876 6.42242 2.14282L6.01134 3.05442C10.3204 4.99758 14.0513 5.83217 17.8861 5.54843C21.7125 5.26531 25.5946 3.87197 30.2111 1.44262L29.7454 0.557674ZM1 5.41833V29.0072H2V5.41833H1ZM1 29.0072C1 40.7773 6.80791 50.1752 13.3032 57.0047C19.7985 63.8341 27.0181 68.1357 29.939 69.7267L30.4174 68.8485C27.5421 67.2824 20.4226 63.0392 14.0278 56.3155C7.63308 49.5918 2 40.4282 2 29.0072H1ZM32.7889 1.44262C37.4054 3.87197 41.2875 5.26531 45.1139 5.54843C48.9487 5.83217 52.6796 4.99758 56.9887 3.05442L56.5776 2.14282C52.3732 4.03876 48.8113 4.81927 45.1877 4.55116C41.5559 4.28244 37.814 2.95699 33.2546 0.557674L32.7889 1.44262ZM61 5.41833V29.0072H62V5.41833H61ZM61 29.0072C61 40.4282 55.3669 49.5918 48.9722 56.3155C42.5774 63.0392 35.4579 67.2824 32.5826 68.8485L33.061 69.7267C35.9819 68.1357 43.2015 63.8341 49.6968 57.0047C56.1921 50.1752 62 40.7773 62 29.0072H61ZM56.9887 3.05442C58.8573 2.21175 61 3.49994 61 5.41833H62C62 2.67074 59.0113 1.04532 56.5776 2.14282L56.9887 3.05442ZM29.939 69.7267C30.9164 70.2591 32.0836 70.2591 33.061 69.7267L32.5826 68.8485C31.9035 69.2185 31.0965 69.2185 30.4174 68.8485L29.939 69.7267ZM6.42242 2.14282C3.98866 1.04532 1 2.67074 1 5.41833H2C2 3.49994 4.14268 2.21175 6.01134 3.05442L6.42242 2.14282ZM30.2111 1.44262C31.0134 1.02043 31.9866 1.02043 32.7889 1.44262L33.2546 0.557673C32.1608 -0.0179224 30.8392 -0.0179224 29.7454 0.557673L30.2111 1.44262ZM66.0681 41.7519L83.5681 71.7519L84.4319 71.2481L66.9319 41.2481L66.0681 41.7519ZM53.0681 50.2519L70.5681 80.2519L71.4319 79.7481L53.9319 49.7481L53.0681 50.2519ZM63.682 82.8738L56.7918 74.6782L56.0264 75.3218L62.9166 83.5173L63.682 82.8738ZM61.0393 85.7164L50.1221 82.9651L49.8777 83.9348L60.795 86.6861L61.0393 85.7164ZM60.2707 89.6333L50.6291 92.355L50.9008 93.3174L60.5423 90.5957L60.2707 89.6333ZM61.5 16.5H91.5V15.5H61.5V16.5ZM95 20V26.5H96V20H95ZM91.5 30.5H61.5V31.5H91.5V30.5ZM61.5 9.5H93.75V8.5H61.5V9.5ZM95 10.75C95 11.4404 94.4404 12 93.75 12V13C94.9926 13 96 11.9926 96 10.75H95ZM93.75 9.5C94.4404 9.5 95 10.0596 95 10.75H96C96 9.50736 94.9926 8.5 93.75 8.5V9.5ZM95 26.5C95 27.4754 94.6016 28.4875 93.948 29.254C93.2951 30.0196 92.4248 30.5 91.5 30.5V31.5C92.7843 31.5 93.914 30.835 94.7089 29.9029C95.503 28.9716 96 27.7337 96 26.5H95ZM91.5 16.5C93.433 16.5 95 18.067 95 20H96C96 17.5147 93.9853 15.5 91.5 15.5V16.5ZM77.625 19H61.5V20H77.625V19ZM75 21.5H61.5V22.5H75V21.5ZM80 24H61.5V25H80V24ZM78.5 26.5H61.5V27.5H78.5V26.5ZM93.75 12H61.5V13H93.75V12Z" fill="#000577"/>
<path d="M63.9288 92.8647H64.4288V92.8646L63.9288 92.8647ZM63.9287 91.5001H63.4287V91.5001L63.9287 91.5001ZM95.4999 91.5001H94.9999V91.5001L95.4999 91.5001ZM95.5 92.8647H96V92.8646L95.5 92.8647ZM64.4288 92.8646L64.4287 91.5001L63.4287 91.5001L63.4288 92.8647L64.4288 92.8646ZM66.5596 89.3691H92.869V88.3691H66.5596V89.3691ZM94.9999 91.5001L95 92.8647L96 92.8646L95.9999 91.5001L94.9999 91.5001ZM92.8691 94.9956H66.5597V95.9956H92.8691V94.9956ZM95 92.8647C95 94.0415 94.0459 94.9956 92.8691 94.9956V95.9956C94.5982 95.9956 96 94.5938 96 92.8647H95ZM92.869 89.3691C94.0459 89.3691 94.9999 90.3232 94.9999 91.5001H95.9999C95.9999 89.7709 94.5982 88.3691 92.869 88.3691V89.3691ZM64.4287 91.5001C64.4287 90.3232 65.3828 89.3691 66.5596 89.3691V88.3691C64.8305 88.3691 63.4287 89.7709 63.4287 91.5001H64.4287ZM63.4288 92.8647C63.4288 94.5938 64.8305 95.9956 66.5597 95.9956V94.9956C65.3828 94.9956 64.4288 94.0415 64.4288 92.8647H63.4288Z" fill="#000577"/>
<path d="M30 7.71533C22.8164 11.4291 17.9965 11.8631 11.2735 8.84234C9.55254 8.06909 7.5 9.23031 7.5 11.0899V29.8927C7.5 47.836 24.7474 58.8258 30 61.7566V7.71533Z" fill="#56CCF2"/>
<path d="M33 61.7566C38.2526 58.8258 55.5 47.836 55.5 29.8927V11.0899C55.5 9.23031 53.4475 8.06909 51.7265 8.84234C45.0035 11.8631 40.1836 11.4291 33 7.71533V61.7566Z" fill="#56CCF2"/>
<path d="M20.4946 83.8577L73.9009 53.0236C75.1592 52.2971 76.7683 52.7282 77.4948 53.9866L78.8103 56.265C79.5368 57.5234 79.1056 59.1324 77.8473 59.859L24.4106 90.7107L20.4946 83.8577Z" fill="#56CCF2"/>
<path d="M19.6286 84.3577L17.9703 85.3151L21.8862 92.1681L23.5445 91.2107L19.6286 84.3577Z" fill="#56CCF2"/>
<path d="M21.0202 92.6681L17.1042 85.8151L12.3159 88.5797C11.0576 89.3062 10.6264 90.9153 11.3529 92.1736L12.6684 94.4521C13.3949 95.7104 15.004 96.1416 16.2623 95.4151L21.0202 92.6681Z" fill="#56CCF2"/>
<path d="M81.7937 66.6943L66.9837 75.2449C65.7254 75.9714 65.2942 77.5804 66.0207 78.8388L67.3362 81.1172C68.0627 82.3756 69.6718 82.8067 70.9301 82.0802L85.7401 73.5297C86.9985 72.8032 87.4296 71.1941 86.7031 69.9358L85.3876 67.6573C84.6611 66.399 83.0521 65.9678 81.7937 66.6943Z" fill="#56CCF2"/>
<path d="M51.1981 47.9034L66.0081 39.3528C67.2664 38.6263 68.8755 39.0575 69.602 40.3158L70.9175 42.5943C71.644 43.8526 71.2128 45.4617 69.9545 46.1882L55.1445 54.7388C53.8862 55.4653 52.2771 55.0341 51.5506 53.7758L50.2351 51.4973C49.5086 50.2389 49.9398 48.6299 51.1981 47.9034Z" fill="#56CCF2"/>
<path d="M65.5919 88.0252V88.683H93.2167V88.0252C93.2167 86.5722 92.0388 85.3943 90.5858 85.3943H68.2228C66.7698 85.3943 65.5919 86.5722 65.5919 88.0252Z" fill="#56CCF2"/>
<path d="M87.5 27.9999C89.9853 27.9999 92 25.9852 92 23.4999C92 21.0146 89.9853 18.9999 87.5 18.9999C85.0147 18.9999 83 21.0146 83 23.4999C83 25.9852 85.0147 27.9999 87.5 27.9999Z" fill="#56CCF2"/>
</svg>
