<svg width="96" height="96" viewBox="0 0 96 96" fill="none" xmlns="http://www.w3.org/2000/svg">
<path d="M8.55426 26.8202C9.31446 25.7876 9.44556 24.9889 9.5 23C9.55444 24.9889 9.68554 25.7876 10.4457 26.8202C10.7432 27.2243 10.7432 27.7757 10.4457 28.1798C9.68554 29.2124 9.55444 30.0111 9.5 32C9.44556 30.0111 9.31446 29.2124 8.55426 28.1798C8.25678 27.7757 8.25678 27.2243 8.55426 26.8202Z" fill="#56CCF2"/>
<path d="M88.5661 85.8298C90.1515 83.8641 90.4013 82.6051 90.5 79C90.5987 82.6051 90.8485 83.8641 92.4339 85.8298C92.7489 86.2203 92.7489 86.7797 92.4339 87.1702C90.8485 89.1359 90.5987 90.3949 90.5 94C90.4013 90.3949 90.1515 89.1359 88.5661 87.1702C88.2511 86.7797 88.2511 86.2203 88.5661 85.8298Z" fill="#56CCF2"/>
<path fill-rule="evenodd" clip-rule="evenodd" d="M74.9358 38.5H65.0642C64.4764 38.5 64 38.9764 64 39.5642V49.9358C64 50.5236 64.4764 51 65.0642 51H74.9358C75.5236 51 76 50.5236 76 49.9358V39.5642C76 38.9764 75.5236 38.5 74.9358 38.5ZM72.2683 47.1304C71.9821 47.1304 71.7403 46.8964 71.7873 46.6141C71.8067 46.4978 71.8336 46.3957 71.8681 46.3078C71.9468 46.1051 72.0744 45.9298 72.2509 45.782C72.4273 45.6342 72.5608 45.4994 72.6515 45.3778C72.7445 45.2538 72.791 45.1179 72.791 44.9701C72.791 44.61 72.636 44.43 72.326 44.43C72.1829 44.43 72.0672 44.4824 71.979 44.5873L71.9517 44.6199C71.7955 44.8067 71.623 45.013 71.3829 45.013H71.2461C70.9072 45.013 70.6148 44.7266 70.7342 44.4094C70.8093 44.2101 70.9249 44.0405 71.0812 43.9006C71.3769 43.6335 71.7918 43.5 72.326 43.5C72.8577 43.5 73.269 43.6228 73.56 43.8684C73.8533 44.114 73.9999 44.4633 73.9999 44.9164C73.9999 45.1143 73.9606 45.2944 73.8819 45.4565C73.8032 45.6187 73.6768 45.7844 73.5027 45.9537L73.0914 46.3364C72.9746 46.4485 72.8935 46.5641 72.8482 46.6833C72.7565 46.9197 72.571 47.1304 72.3176 47.1304H72.2683ZM71.6035 48.2178C71.6035 48.0413 71.6666 47.8971 71.793 47.785C71.9218 47.6705 72.0816 47.6133 72.2723 47.6133C72.4631 47.6133 72.6217 47.6705 72.748 47.785C72.8768 47.8971 72.9412 48.0413 72.9412 48.2178C72.9412 48.3942 72.8768 48.5397 72.748 48.6542C72.6217 48.7662 72.4631 48.8223 72.2723 48.8223C72.0816 48.8223 71.9218 48.7662 71.793 48.6542C71.6666 48.5397 71.6035 48.3942 71.6035 48.2178ZM66.5 40.5C66.2239 40.5 66 40.7239 66 41C66 41.2761 66.2239 41.5 66.5 41.5H73.5C73.7761 41.5 74 41.2761 74 41C74 40.7239 73.7761 40.5 73.5 40.5H66.5ZM66.5 43C66.2239 43 66 43.2239 66 43.5C66 43.7761 66.2239 44 66.5 44H70C70.2761 44 70.5 43.7761 70.5 43.5C70.5 43.2239 70.2761 43 70 43H66.5ZM66.5 45.5C66.2239 45.5 66 45.7239 66 46C66 46.2761 66.2239 46.5 66.5 46.5H70C70.2761 46.5 70.5 46.2761 70.5 46C70.5 45.7239 70.2761 45.5 70 45.5H66.5ZM66.5 48C66.2239 48 66 48.2239 66 48.5C66 48.7761 66.2239 49 66.5 49H70.5C70.7761 49 71 48.7761 71 48.5C71 48.2239 70.7761 48 70.5 48H66.5Z" fill="#56CCF2"/>
<path d="M40.319 14.5034C39.7106 14.5034 39.1965 14.0197 39.2964 13.4363C39.3376 13.1958 39.3949 12.9847 39.4683 12.8031C39.6356 12.3842 39.9068 12.022 40.2819 11.7164C40.657 11.4108 40.9408 11.1324 41.1335 10.881C41.3312 10.6248 41.43 10.3439 41.43 10.0383C41.43 9.29413 41.1005 8.92204 40.4415 8.92204C40.1374 8.92204 39.8915 9.03047 39.704 9.24731C39.3563 9.64931 38.977 10.127 38.4368 10.127H38.146C37.4254 10.127 36.804 9.53515 37.0579 8.87951C37.2173 8.46769 37.4632 8.11717 37.7955 7.82796C38.4241 7.27599 39.3061 7 40.4415 7C41.5719 7 42.4463 7.25381 43.0648 7.76142C43.6883 8.26904 44 8.99104 44 9.92742C44 10.3365 43.9164 10.7086 43.7491 11.0437C43.5818 11.3788 43.3131 11.7213 42.9431 12.0712L42.0687 12.8622C41.8203 13.0939 41.648 13.3329 41.5517 13.5793C41.3568 14.0678 40.9625 14.5034 40.4236 14.5034H40.319ZM38.9056 16.7507C38.9056 16.386 39.04 16.0878 39.3086 15.8562C39.5823 15.6196 39.922 15.5013 40.3275 15.5013C40.733 15.5013 41.0701 15.6196 41.3388 15.8562C41.6125 16.0878 41.7494 16.386 41.7494 16.7507C41.7494 17.1154 41.6125 17.416 41.3388 17.6526C41.0701 17.8842 40.733 18 40.3275 18C39.922 18 39.5823 17.8842 39.3086 17.6526C39.04 17.416 38.9056 17.1154 38.9056 16.7507Z" fill="#56CCF2"/>
<path d="M9.31898 88.5034C8.71058 88.5034 8.19645 88.0197 8.2964 87.4363C8.33759 87.1958 8.39489 86.9847 8.46829 86.8031C8.63556 86.3842 8.90676 86.022 9.28187 85.7164C9.65697 85.4108 9.94084 85.1324 10.1335 84.8811C10.3312 84.6248 10.43 84.3439 10.43 84.0383C10.43 83.2941 10.1005 82.922 9.44154 82.922C9.1374 82.922 8.89155 83.0305 8.704 83.2473C8.3563 83.6493 7.977 84.127 7.43676 84.127H7.14601C6.42544 84.127 5.80398 83.5352 6.05785 82.8795C6.21731 82.4677 6.46319 82.1172 6.79551 81.828C7.42407 81.276 8.30608 81 9.44154 81C10.5719 81 11.4463 81.2538 12.0648 81.7614C12.6883 82.269 13 82.991 13 83.9274C13 84.3365 12.9164 84.7086 12.7491 85.0437C12.5818 85.3788 12.3131 85.7213 11.9431 86.0712L11.0687 86.8622C10.8203 87.0939 10.648 87.3329 10.5517 87.5793C10.3568 88.0678 9.96251 88.5034 9.42364 88.5034H9.31898ZM7.90562 90.7507C7.90562 90.386 8.03995 90.0878 8.30861 89.8562C8.58234 89.6196 8.92196 89.5013 9.32749 89.5013C9.73301 89.5013 10.0701 89.6196 10.3388 89.8562C10.6125 90.0878 10.7494 90.386 10.7494 90.7507C10.7494 91.1154 10.6125 91.416 10.3388 91.6525C10.0701 91.8842 9.73301 92 9.32749 92C8.92196 92 8.58234 91.8842 8.30861 91.6525C8.03995 91.416 7.90562 91.1154 7.90562 90.7507Z" fill="#56CCF2"/>
<path d="M4.99998 2L5.49977 1.98551C5.49193 1.71513 5.27048 1.5 4.99998 1.5C4.72948 1.5 4.50802 1.71513 4.50019 1.98551L4.99998 2ZM2.62071 9.80866L2.24204 9.48215H2.24204L2.62071 9.80866ZM7.37925 9.80866L7.75792 9.48215H7.75792L7.37925 9.80866ZM4.99998 19L4.50019 19.0145C4.50802 19.2849 4.72948 19.5 4.99998 19.5C5.27048 19.5 5.49193 19.2849 5.49977 19.0145L4.99998 19ZM2.62071 11.1913L2.24203 11.5178L2.24204 11.5179L2.62071 11.1913ZM7.37925 11.1913L7.75792 11.5179L7.75792 11.5178L7.37925 11.1913ZM14.5 14L14.9998 13.9863C14.9924 13.7156 14.7708 13.5 14.5 13.5C14.2292 13.5 14.0076 13.7156 14.0002 13.9863L14.5 14ZM13.5542 17.8202L13.1516 17.5238L13.5542 17.8202ZM15.4457 17.8202L15.0431 18.1166L15.4457 17.8202ZM14.5 23L14.0002 23.0137C14.0076 23.2844 14.2292 23.5 14.5 23.5C14.7708 23.5 14.9924 23.2844 14.9998 23.0137L14.5 23ZM13.5542 19.1798L13.9569 18.8834L13.5542 19.1798ZM15.4457 19.1798L15.0431 18.8834L15.4457 19.1798ZM71.5 82L71.9998 81.9863C71.9924 81.7156 71.7708 81.5 71.5 81.5C71.2292 81.5 71.0076 81.7156 71.0002 81.9863L71.5 82ZM70.5542 85.8202L70.1516 85.5238L70.5542 85.8202ZM72.4457 85.8202L72.0431 86.1166L72.4457 85.8202ZM71.5 91L71.0002 91.0137C71.0076 91.2844 71.2292 91.5 71.5 91.5C71.7708 91.5 71.9924 91.2844 71.9998 91.0137L71.5 91ZM70.5542 87.1798L70.9569 86.8834L70.5542 87.1798ZM72.4457 87.1798L72.0431 86.8834L72.4457 87.1798ZM82.5 63L82.9998 62.9863C82.9924 62.7156 82.7708 62.5 82.5 62.5C82.2292 62.5 82.0076 62.7156 82.0002 62.9863L82.5 63ZM80.5661 69.8298L80.1769 69.5159L80.5661 69.8298ZM84.4339 69.8298L84.0447 70.1437L84.4339 69.8298ZM82.5 78L82.0002 78.0137C82.0076 78.2844 82.2292 78.5 82.5 78.5C82.7708 78.5 82.9924 78.2844 82.9998 78.0137L82.5 78ZM80.5661 71.1702L80.1769 71.4841L80.5661 71.1702ZM84.4339 71.1702L84.8231 71.4841L84.4339 71.1702ZM89.2382 31.0429L89.3103 31.5376L89.2382 31.0429ZM94.0173 34.4535L93.5234 34.5313L94.0173 34.4535ZM93.937 55.0466L94.4273 55.1448L93.937 55.0466ZM90.4969 58.0399L90.4629 57.541L90.4621 57.5411L90.4969 58.0399ZM58.3359 62.7725L58.6873 63.1283L58.3359 62.7725ZM38.7236 76.8182L38.6904 77.3171L38.7236 76.8182ZM20.8781 76.0886L20.519 76.4364L20.8781 76.0886ZM13.1039 67.6976L12.6159 67.5886L13.1039 67.6976ZM38.0266 69.292C38.3026 69.2866 38.5221 69.0585 38.5167 68.7824C38.5113 68.5063 38.2832 68.2868 38.0071 68.2922L38.0266 69.292ZM24.7652 69.7042L24.8575 70.1956L24.7652 69.7042ZM19.6413 58.9419L19.5043 58.4609L19.4946 58.4639L19.6413 58.9419ZM24.9022 57.9635C25.1678 57.8878 25.3217 57.6112 25.2461 57.3456C25.1705 57.0801 24.8939 56.9261 24.6283 57.0017L24.9022 57.9635ZM17.8744 59.6813L18.1091 60.1227H18.1091L17.8744 59.6813ZM15.7542 54.0168L15.274 53.8772L15.7542 54.0168ZM24.277 47.5738C24.4462 47.3555 24.4063 47.0415 24.1881 46.8723C23.9698 46.7032 23.6557 46.743 23.4866 46.9613L24.277 47.5738ZM20.8781 42.5248L21.2301 42.88L20.8781 42.5248ZM21.9382 41.4654L22.2932 41.8176L21.9382 41.4654ZM26.7599 36.9815C26.9222 36.7581 26.8727 36.4454 26.6493 36.2831C26.4259 36.1208 26.1132 36.1704 25.9509 36.3938L26.7599 36.9815ZM22.645 37.5997L23.0402 37.906L22.645 37.5997ZM28.1223 30.6681L28.2473 31.1522L28.1223 30.6681ZM52.5052 30.6681L52.6857 30.2018L52.5052 30.6681ZM65.8078 25.59C65.9166 25.8439 66.2106 25.9614 66.4644 25.8527C66.7182 25.7439 66.8358 25.4499 66.727 25.1961L65.8078 25.59ZM60.342 10.2977C60.2332 10.0439 59.9392 9.92634 59.6854 10.0351C59.4316 10.1439 59.314 10.4378 59.4228 10.6916L60.342 10.2977ZM70.0666 23.0629C69.9552 23.3156 70.0696 23.6107 70.3223 23.7222C70.5749 23.8337 70.8701 23.7192 70.9816 23.4666L70.0666 23.0629ZM78.9628 5.37565C79.0743 5.123 78.9598 4.82784 78.7072 4.71637C78.4546 4.60491 78.1594 4.71936 78.0479 4.97201L78.9628 5.37565ZM66.7146 63.9269C66.8381 63.6799 66.738 63.3795 66.491 63.256C66.244 63.1325 65.9437 63.2327 65.8202 63.4796L66.7146 63.9269ZM55.1785 84.7631C55.055 85.0101 55.1551 85.3104 55.4021 85.4339C55.6491 85.5574 55.9494 85.4573 56.0729 85.2103L55.1785 84.7631ZM71.0024 63.5577C70.922 63.2935 70.6427 63.1445 70.3785 63.2249C70.1143 63.3053 69.9654 63.5846 70.0458 63.8488L71.0024 63.5577ZM73.7704 76.0868C73.8508 76.351 74.1301 76.5 74.3943 76.4196C74.6585 76.3392 74.8074 76.0598 74.727 75.7956L73.7704 76.0868ZM4.50019 1.98551C4.44031 4.05166 4.33406 5.37789 4.01852 6.46215C3.70951 7.52396 3.19063 8.382 2.24204 9.48215L2.99938 10.1352C4.00575 8.96801 4.6167 7.98542 4.97868 6.74158C5.33413 5.52018 5.44003 4.07574 5.49977 2.01449L4.50019 1.98551ZM4.50019 2.01449C4.55993 4.07574 4.66583 5.52018 5.02127 6.74158C5.38325 7.98542 5.9942 8.96801 7.00058 10.1352L7.75792 9.48215C6.80932 8.382 6.29045 7.52396 5.98144 6.46215C5.6659 5.37789 5.55965 4.05166 5.49977 1.98551L4.50019 2.01449ZM5.49977 18.9855C5.44003 16.9243 5.33413 15.4798 4.97868 14.2584C4.6167 13.0146 4.00575 12.032 2.99938 10.8648L2.24204 11.5179C3.19063 12.618 3.70951 13.476 4.01852 14.5378C4.33406 15.6221 4.44031 16.9483 4.50019 19.0145L5.49977 18.9855ZM5.49977 19.0145C5.55965 16.9483 5.6659 15.6221 5.98144 14.5378C6.29045 13.476 6.80932 12.618 7.75792 11.5179L7.00058 10.8648C5.9942 12.032 5.38325 13.0146 5.02127 14.2584C4.66583 15.4798 4.55993 16.9243 4.50019 18.9855L5.49977 19.0145ZM7.00058 10.1352C7.18066 10.344 7.18066 10.656 7.00058 10.8648L7.75792 11.5178C8.26154 10.9338 8.26154 10.0662 7.75792 9.48215L7.00058 10.1352ZM2.24204 9.48215C1.73841 10.0662 1.73841 10.9338 2.24203 11.5178L2.99938 10.8648C2.8193 10.656 2.8193 10.344 2.99938 10.1352L2.24204 9.48215ZM14.0002 13.9863C13.9729 14.9816 13.9267 15.6325 13.8048 16.1552C13.6877 16.6575 13.4973 17.0542 13.1516 17.5238L13.9569 18.1166C14.3713 17.5537 14.6266 17.0346 14.7787 16.3822C14.9261 15.7502 14.9726 15.0073 14.9998 14.0137L14.0002 13.9863ZM14.0002 14.0137C14.0274 15.0073 14.0739 15.7502 14.2212 16.3822C14.3733 17.0346 14.6286 17.5537 15.0431 18.1166L15.8484 17.5238C15.5026 17.0542 15.3122 16.6575 15.1951 16.1552C15.0733 15.6325 15.027 14.9816 14.9998 13.9863L14.0002 14.0137ZM14.9998 22.9863C14.9726 21.9927 14.9261 21.2498 14.7787 20.6178C14.6266 19.9654 14.3713 19.4463 13.9569 18.8834L13.1516 19.4762C13.4973 19.9458 13.6877 20.3425 13.8048 20.8448C13.9267 21.3675 13.9729 22.0184 14.0002 23.0137L14.9998 22.9863ZM14.9998 23.0137C15.027 22.0184 15.0733 21.3675 15.1951 20.8448C15.3122 20.3425 15.5026 19.9458 15.8484 19.4762L15.0431 18.8834C14.6286 19.4463 14.3733 19.9654 14.2212 20.6178C14.0739 21.2498 14.0274 21.9927 14.0002 22.9863L14.9998 23.0137ZM15.0431 18.1166C15.2107 18.3444 15.2107 18.6556 15.0431 18.8834L15.8484 19.4762C16.2756 18.8959 16.2756 18.1041 15.8484 17.5238L15.0431 18.1166ZM13.1516 17.5238C12.7243 18.1041 12.7243 18.8959 13.1516 19.4762L13.9569 18.8834C13.7892 18.6556 13.7892 18.3444 13.9569 18.1166L13.1516 17.5238ZM71.0002 81.9863C70.9729 82.9816 70.9267 83.6325 70.8048 84.1552C70.6877 84.6575 70.4973 85.0542 70.1516 85.5238L70.9569 86.1166C71.3714 85.5537 71.6266 85.0346 71.7787 84.3822C71.9261 83.7502 71.9726 83.0072 71.9998 82.0137L71.0002 81.9863ZM71.0002 82.0137C71.0274 83.0072 71.0739 83.7502 71.2212 84.3822C71.3733 85.0346 71.6286 85.5537 72.0431 86.1166L72.8484 85.5238C72.5026 85.0542 72.3122 84.6575 72.1951 84.1552C72.0733 83.6325 72.027 82.9816 71.9998 81.9863L71.0002 82.0137ZM71.9998 90.9863C71.9726 89.9928 71.9261 89.2498 71.7787 88.6178C71.6266 87.9653 71.3714 87.4463 70.9569 86.8834L70.1516 87.4762C70.4973 87.9458 70.6877 88.3425 70.8048 88.8448C70.9267 89.3675 70.9729 90.0184 71.0002 91.0137L71.9998 90.9863ZM71.9998 91.0137C72.027 90.0184 72.0733 89.3675 72.1951 88.8448C72.3122 88.3425 72.5026 87.9458 72.8484 87.4762L72.0431 86.8834C71.6286 87.4463 71.3733 87.9653 71.2212 88.6178C71.0739 89.2498 71.0274 89.9928 71.0002 90.9863L71.9998 91.0137ZM72.0431 86.1166C72.2107 86.3444 72.2107 86.6556 72.0431 86.8834L72.8484 87.4762C73.2757 86.8959 73.2757 86.1041 72.8484 85.5238L72.0431 86.1166ZM70.1516 85.5238C69.7243 86.1041 69.7243 86.8959 70.1516 87.4762L70.9569 86.8834C70.7892 86.6556 70.7892 86.3444 70.9569 86.1166L70.1516 85.5238ZM82.0002 62.9863C81.9508 64.7912 81.8635 65.9523 81.6078 66.8994C81.3582 67.8242 80.9405 68.569 80.1769 69.5159L80.9553 70.1437C81.777 69.1248 82.277 68.2573 82.5733 67.16C82.8635 66.0848 82.9505 64.814 82.9998 63.0137L82.0002 62.9863ZM82.0002 63.0137C82.0494 64.814 82.1364 66.0848 82.4267 67.16C82.7229 68.2573 83.2229 69.1248 84.0447 70.1437L84.8231 69.5159C84.0594 68.569 83.6418 67.8242 83.3921 66.8994C83.1365 65.9523 83.0492 64.7912 82.9998 62.9863L82.0002 63.0137ZM82.9998 77.9863C82.9505 76.186 82.8635 74.9152 82.5733 73.84C82.277 72.7427 81.777 71.8752 80.9553 70.8563L80.1769 71.4841C80.9405 72.431 81.3582 73.1758 81.6078 74.1006C81.8635 75.0477 81.9508 76.2088 82.0002 78.0137L82.9998 77.9863ZM82.9998 78.0137C83.0492 76.2088 83.1365 75.0477 83.3921 74.1006C83.6418 73.1758 84.0594 72.431 84.8231 71.4841L84.0447 70.8563C83.2229 71.8752 82.7229 72.7427 82.4267 73.84C82.1364 74.9152 82.0494 76.186 82.0002 77.9863L82.9998 78.0137ZM84.0447 70.1437C84.2119 70.351 84.2119 70.649 84.0447 70.8563L84.8231 71.4841C85.2858 70.9104 85.2858 70.0896 84.8231 69.5159L84.0447 70.1437ZM80.1769 69.5159C79.7141 70.0896 79.7141 70.9104 80.1769 71.4841L80.9553 70.8563C80.788 70.649 80.788 70.351 80.9553 70.1437L80.1769 69.5159ZM76.9412 39.3172V50.4449H77.9412V39.3172H76.9412ZM63.0529 50.2658V39.4963H62.0529V50.2658H63.0529ZM65.923 32.2625H74.0679V31.2625H65.923V32.2625ZM65.2032 37.3095H74.9675V36.3095H65.2032V37.3095ZM66.839 60.9012H73.708V59.9012H66.839V60.9012ZM74.9675 52.4526H65.2032V53.4526H74.9675V52.4526ZM74.4675 32.6746V36.8095H75.4675V32.6746H74.4675ZM75.0114 33.1727C78.5352 32.8621 84.6993 32.2091 89.3103 31.5376L89.1662 30.5481C84.5798 31.216 78.4357 31.867 74.9236 32.1765L75.0114 33.1727ZM93.5234 34.5313C94.6939 41.9584 94.9787 47.2996 93.4468 54.9484L94.4273 55.1448C95.9894 47.3449 95.6936 41.878 94.5112 34.3756L93.5234 34.5313ZM75.4675 59.1243V52.9526H74.4675V59.1243H75.4675ZM90.4621 57.5411L74.9327 58.6255L75.0024 59.6231L90.5317 58.5387L90.4621 57.5411ZM64.7032 52.9526V59.1243H65.7032V52.9526H64.7032ZM65.2714 58.629C64.7028 58.5507 63.7009 58.6956 62.4567 59.2409C61.1957 59.7936 59.6497 60.7725 57.9846 62.4168L58.6873 63.1283C60.2733 61.5621 61.7191 60.6561 62.8581 60.1568C64.0139 59.6503 64.8201 59.5763 65.135 59.6196L65.2714 58.629ZM57.9846 62.4168C55.9446 64.4313 52.4305 68.0137 48.742 71.0511C46.8979 72.5697 45.025 73.9393 43.2848 74.9046C41.5292 75.8784 39.9782 76.4007 38.7568 76.3193L38.6904 77.3171C40.2077 77.4182 41.9695 76.7776 43.7698 75.7791C45.5854 74.772 47.5113 73.3599 49.3777 71.8231C53.11 68.7496 56.6634 65.1268 58.6873 63.1283L57.9846 62.4168ZM38.7568 76.3193C37.3299 76.2243 35.7384 76.4029 34.1217 76.6459C32.483 76.8921 30.8383 77.2005 29.2119 77.3934C25.9434 77.781 23.0854 77.6487 21.2373 75.7407L20.519 76.4364C22.7346 78.7239 26.0608 78.7741 29.3297 78.3864C30.972 78.1917 32.6844 77.873 34.2703 77.6348C35.8781 77.3932 37.3786 77.2298 38.6904 77.3171L38.7568 76.3193ZM21.2373 75.7407C19.1835 73.6204 17.0571 72.0736 15.5922 70.8281C14.8451 70.1929 14.283 69.6484 13.9373 69.1385C13.6005 68.6418 13.4987 68.2234 13.5918 67.8067L12.6159 67.5886C12.444 68.3575 12.6734 69.0564 13.1097 69.6997C13.537 70.33 14.1897 70.9483 14.9444 71.59C16.4832 72.8983 18.5089 74.3612 20.519 76.4364L21.2373 75.7407ZM13.5918 67.8067C13.9814 66.0637 14.879 65.8263 15.0474 65.8263V64.8263C14.2735 64.8263 13.0744 65.5375 12.6159 67.5886L13.5918 67.8067ZM38.0071 68.2922C34.8955 68.3528 27.8313 68.6199 24.673 69.2128L24.8575 70.1956C27.9185 69.621 34.8951 69.353 38.0266 69.292L38.0071 68.2922ZM24.673 69.2128C22.7911 69.566 20.9476 69.5139 19.3587 68.8961C17.7827 68.2834 16.4204 67.1007 15.5011 65.1161L14.5937 65.5365C15.6179 67.7474 17.171 69.1185 18.9963 69.8282C20.8086 70.5328 22.8523 70.572 24.8575 70.1956L24.673 69.2128ZM19.7782 59.4228L24.9022 57.9635L24.6283 57.0017L19.5043 58.461L19.7782 59.4228ZM15.5044 65.1234C14.9862 63.9561 15.1683 62.9866 15.6909 62.1709C16.2313 61.3271 17.1503 60.6326 18.1091 60.1227L17.6397 59.2398C16.606 59.7894 15.5196 60.5842 14.8488 61.6315C14.16 62.7068 13.9249 64.0301 14.5904 65.5292L15.5044 65.1234ZM18.1091 60.1227C18.7048 59.806 19.2974 59.5705 19.788 59.4199L19.4946 58.4639C18.945 58.6326 18.2933 58.8923 17.6397 59.2398L18.1091 60.1227ZM18.1421 59.259C17.1801 58.6491 15.4736 56.774 16.2343 54.1563L15.274 53.8772C14.3385 57.0967 16.4485 59.3693 17.6067 60.1036L18.1421 59.259ZM16.2343 54.1563C16.6681 52.6635 17.991 51.5679 19.5616 50.6134L19.0422 49.7588C17.4474 50.7281 15.8214 51.9934 15.274 53.8772L16.2343 54.1563ZM19.5616 50.6134C20.4786 50.0561 21.3882 49.5976 22.2437 49.11C23.057 48.6464 23.8283 48.1529 24.277 47.5738L23.4866 46.9613C23.1759 47.3622 22.5759 47.7696 21.7485 48.2412C20.9632 48.6888 19.9625 49.1995 19.0422 49.7588L19.5616 50.6134ZM19.68 49.859C19.2888 49.4068 18.8453 48.493 18.909 47.2847C18.9721 46.0895 19.535 44.56 21.2301 42.88L20.5261 42.1697C18.6875 43.992 17.9888 45.7459 17.9104 47.2321C17.8327 48.7053 18.368 49.8709 18.9238 50.5133L19.68 49.859ZM21.2301 42.88C21.606 42.5074 21.9601 42.1533 22.2932 41.8176L21.5833 41.1133C21.2522 41.447 20.9001 41.799 20.5261 42.1697L21.2301 42.88ZM22.2932 41.8176C25.0899 38.9982 26.419 37.4508 26.7599 36.9815L25.9509 36.3938C25.6601 36.7941 24.3809 38.2929 21.5833 41.1133L22.2932 41.8176ZM22.2504 41.0748C22.0967 40.952 21.4158 40.0023 23.0402 37.906L22.2498 37.2935C20.4818 39.575 20.8374 41.2258 21.6261 41.856L22.2504 41.0748ZM23.0402 37.906C24.1104 36.5249 25.1543 34.8424 26.0603 33.5285C26.5215 32.8596 26.9474 32.2844 27.3374 31.8576C27.7433 31.4134 28.0454 31.2043 28.2473 31.1522L27.9973 30.1839C27.4924 30.3143 27.0215 30.7208 26.5992 31.183C26.161 31.6625 25.7035 32.2844 25.237 32.9608C24.2878 34.3375 23.2998 35.9384 22.2498 37.2935L23.0402 37.906ZM28.2473 31.1522C28.5321 31.0787 29.2193 31.0315 30.2126 31.0141C31.1808 30.9971 32.3772 31.0084 33.6347 31.0312C36.1378 31.0765 38.8954 31.1681 40.4904 31.1681V30.1681C38.9051 30.1681 36.1854 30.0772 33.6528 30.0313C32.3925 30.0085 31.1816 29.997 30.1952 30.0142C29.2339 30.0311 28.4192 30.0751 27.9973 30.1839L28.2473 31.1522ZM40.4904 31.1681C42.0963 31.1681 44.4595 30.8904 46.6606 30.7567C47.7795 30.6888 48.8737 30.6558 49.8571 30.7057C50.8465 30.7559 51.6906 30.8888 52.3247 31.1344L52.6857 30.2018C51.9064 29.9001 50.9394 29.7594 49.9079 29.707C48.8704 29.6543 47.7339 29.6897 46.6 29.7586C44.2956 29.8985 42.0649 30.1681 40.4904 30.1681V31.1681ZM52.3247 31.1344C55.0719 32.1979 56.0928 32.9923 58.866 32.9923V31.9923C56.3385 31.9923 55.5925 31.3272 52.6857 30.2018L52.3247 31.1344ZM65.7032 36.8095V32.4923H64.7032V36.8095H65.7032ZM58.866 32.9923H65.2032V31.9923H58.866V32.9923ZM76.9412 50.4449C76.9412 51.5602 76.0511 52.4526 74.9675 52.4526V53.4526C76.6162 53.4526 77.9412 52.0995 77.9412 50.4449H76.9412ZM89.3103 31.5376C91.2795 31.2509 93.2158 32.5795 93.5234 34.5313L94.5112 34.3756C94.1116 31.8403 91.6338 30.1887 89.1662 30.5481L89.3103 31.5376ZM93.4468 54.9484C93.1574 56.3933 91.9253 57.4414 90.4629 57.5411L90.5309 58.5387C92.429 58.4093 94.0465 57.0461 94.4273 55.1448L93.4468 54.9484ZM62.0529 50.2658C62.0529 52.0193 63.4569 53.4526 65.2032 53.4526V52.4526C64.022 52.4526 63.0529 51.48 63.0529 50.2658H62.0529ZM77.9412 39.3172C77.9412 37.6625 76.6162 36.3095 74.9675 36.3095V37.3095C76.0511 37.3095 76.9412 38.2019 76.9412 39.3172H77.9412ZM63.0529 39.4963C63.0529 38.2821 64.022 37.3095 65.2032 37.3095V36.3095C63.4569 36.3095 62.0529 37.7428 62.0529 39.4963H63.0529ZM66.839 59.9012C66.6115 59.9012 66.3025 59.8009 66.0518 59.621C65.7933 59.4355 65.7032 59.2478 65.7032 59.1243H64.7032C64.7032 59.706 65.0832 60.1568 65.4688 60.4334C65.8621 60.7157 66.371 60.9012 66.839 60.9012V59.9012ZM74.0679 32.2625C74.2822 32.2625 74.4675 32.4406 74.4675 32.6746H75.4675C75.4675 31.9012 74.8473 31.2625 74.0679 31.2625V32.2625ZM73.708 60.9012C74.6862 60.9012 75.4675 60.0992 75.4675 59.1243H74.4675C74.4675 59.5598 74.121 59.9012 73.708 59.9012V60.9012ZM65.923 31.2625C65.2429 31.2625 64.7032 31.8196 64.7032 32.4923H65.7032C65.7032 32.3589 65.808 32.2625 65.923 32.2625V31.2625ZM66.727 25.1961L60.342 10.2977L59.4228 10.6916L65.8078 25.59L66.727 25.1961ZM70.9816 23.4666L78.9628 5.37565L78.0479 4.97201L70.0666 23.0629L70.9816 23.4666ZM65.8202 63.4796L55.1785 84.7631L56.0729 85.2103L66.7146 63.9269L65.8202 63.4796ZM70.0458 63.8488L73.7704 76.0868L74.727 75.7956L71.0024 63.5577L70.0458 63.8488Z" fill="#000577"/>
</svg>
