<svg width="97" height="97" viewBox="0 0 97 97" fill="none" xmlns="http://www.w3.org/2000/svg">
<path d="M67 22C68.1046 22 69 22.8954 69 24V47.5C69 47.7754 68.9443 48.0378 68.8436 48.2766C68.3958 46.6844 67.3 43 66.5 41C65.7 39 63.5 35.5 62.5 34C62.1667 34 61.4 34.2 61 35C60.6 35.8 62.5 44.3333 63.5 48.5L62 49.5H30C28.8954 49.5 28 48.6046 28 47.5V24C28 22.8954 28.8954 22 30 22H67Z" fill="#56CCF2"/>
<path d="M61.5 32V28M59.5 34H56.5M63.5 34H66.5" stroke="white" stroke-linecap="round" stroke-linejoin="round"/>
<path d="M7.55173 65.5423V13C7.55173 11.8954 8.44716 11 9.55173 11H87.4483C88.5528 11 89.4483 11.8954 89.4483 13V65.5423M7.55173 65.5423H1.5C1.22385 65.5423 1 65.7661 1 66.0423V67C1 68.1046 1.89543 69 3 69H16M7.55173 65.5423H17.5M89.4483 65.5423H95.5C95.7761 65.5423 96 65.7661 96 66.0423V67C96 68.1046 95.1046 69 94 69H81.417M89.4483 65.5423H80.5806M42.7163 69H60.5077M33.5 69H37M38.5 63H38M42 63H55.9774M19 63H12.5C11.3954 63 10.5 62.1046 10.5 61V16.5C10.5 15.3954 11.3954 14.5 12.5 14.5H84.5C85.6046 14.5 86.5 15.3954 86.5 16.5V61C86.5 62.1046 85.6046 63 84.5 63H79.7896M36 65.5423H57.8369M22.6212 60.2114C19.812 60.9137 19.5779 62.0842 17.4709 66.2981C15.7854 69.6691 13.5 80.1101 2.5 80.5C0.492803 86.441 5.76528 95.8023 8.82076 95.795C8.89528 94.5676 17.0027 88.7719 21.4507 87.1332C25.8986 85.4945 34.3263 82.9194 35.965 80.1101C37.6038 77.3009 42.754 69.8097 42.9881 67.9368C43.2222 66.064 39.9448 66.064 38.3061 67.9368C36.6673 69.8097 32.6876 74.2576 32.2194 73.7894C31.7512 73.3212 32.4535 70.9802 33.624 68.6391C34.5604 66.7663 37.1355 63.801 38.3061 62.5525C38.4621 62.7086 38.9615 63.1612 39.7107 63.723C40.6471 64.4253 42.2858 63.9571 42.0517 62.0843C41.8584 60.5377 39.5895 58.6717 38.0139 58.0687M21.4507 62.3183C22.4651 60.4455 24.7749 56.5594 25.8986 55.9976C27.0223 55.4357 28.5685 55.228 29.1928 55.306M29.1928 55.306C28.3288 56.3667 27.4649 57.8313 26.6009 59.0409C25.6645 60.3518 25 62 25 62M29.1928 55.306C29.4993 54.9296 29.8059 54.6041 30.1124 54.3588C31.283 53.4224 36.9014 54.3588 38.7742 56.6999C39.5716 57.6966 39.011 58.0143 38.0139 58.0687M38.0139 58.0687C37.6816 57.9415 37.3802 57.8705 37.1356 57.8705C36.9598 57.8705 36.7321 57.9239 36.4674 58.0183M36.4674 58.0183C35.3921 57.9295 34.3033 57.7814 33.8581 57.8705C32.9217 58.0577 31.7512 60.1334 31.283 61.1479C32.5338 60.2263 35.0396 58.5272 36.4674 58.0183ZM24 58.1252V18H73V52.8231M29 48L32.8338 41.566C33.1746 41.0206 33.9341 40.9341 34.3889 41.3889L36.6375 43.6375C37.0837 44.0837 37.8266 44.0101 38.1766 43.4851L41.5442 38.4338C41.9701 37.7949 42.9272 37.8545 43.2706 38.5413L44.6556 41.3112C45.0146 42.0291 46.0304 42.0529 46.4225 41.3526L51.7265 31.8812C52.071 31.266 52.9517 31.2528 53.3144 31.8574C53.6453 32.4088 54.4259 32.4579 54.8232 31.9522L59.1997 26.3822C59.3893 26.1409 59.6792 26 59.986 26H63.6795C63.888 26 64.0912 25.9349 64.2608 25.8137L67.5 23.5M29 51.5H51M32 54H53.3144M38.5 56.5H48.5M58.3319 57.9856C56.9751 54.5536 53.3633 55.2835 54.0974 57.8531C54.8316 60.4226 55.0481 61.7378 56.2935 63.4628C57.5388 65.1878 60.5893 69.2041 63.283 72.4277C65.9767 75.6514 71.5083 78.6394 74.3421 81.3406L76.275 87.696C76.4344 88.2202 76.8897 88.6054 77.4389 88.6722C82.9371 89.3412 87.3679 89.1849 91.4666 86.2969C92.1124 85.8419 92.1713 84.9343 91.646 84.3468C89.0818 81.4796 82.2554 73.746 82.0619 72.4626C81.762 70.4739 80.4773 63.5678 78.6539 60.4338C78.566 60.2826 78.5134 60.1157 78.4891 59.9429C78.3721 59.1109 77.9238 57.7147 76.8176 56.8625C76.5472 56.6542 76.3406 56.3601 76.1736 56.0639C75.2856 54.488 71.5676 51.6677 69.5753 50.0225C69.4233 49.897 69.3128 49.7353 69.251 49.5491C67.509 44.3091 63.8614 34.2999 62.4756 34.0461C60.8675 33.7515 59.5792 34.4707 63.7635 48.3657M58.3319 57.9856C58.2411 57.2627 58.1787 55.3728 58.6552 53.5964C59.1317 51.8199 62.2593 49.3691 63.7635 48.3657M58.3319 57.9856C58.484 58.3704 58.6572 58.743 58.8468 59.0995M63.7635 48.3657C64.1685 49.7103 64.6246 51.1783 65.1367 52.7807M65.1367 52.7807C64.4296 53.2942 62.8081 54.882 61.9787 57.1251C61.6295 58.0695 61.143 58.6177 60.6446 58.9152M65.1367 52.7807C65.4568 53.9315 65.5781 55.481 65.5189 57.0176M58.8468 59.0995C60.3488 61.9231 62.881 63.7295 64.1119 62.4387C64.9415 61.5687 65.4306 59.3075 65.5189 57.0176M58.8468 59.0995C59.2512 59.2596 59.9591 59.3244 60.6446 58.9152M60.6446 58.9152C60.3517 59.4765 60.0123 60.6358 60.9977 60.7825C61.6942 60.8862 62.4466 60.7812 63.1058 60.3524M65.5189 57.0176C65.3957 57.0046 64.9981 57.3303 64.393 58.7374C64.0642 59.5019 63.6126 60.0228 63.1058 60.3524M63.1058 60.3524C63.2787 60.7691 63.8665 61.4432 64.8345 60.8061M5.00001 33L2.85715 31M5.00001 36H2.00001M5.00001 39L2.85715 41M92 33L94.1429 31M92 36H95M92 39L94.1429 41" stroke="#000577" stroke-linecap="round" stroke-linejoin="round"/>
<path d="M39 43.5C39 44.3284 38.3284 45 37.5 45C36.6716 45 36 44.3284 36 43.5C36 42.6716 36.6716 42 37.5 42C38.3284 42 39 42.6716 39 43.5Z" fill="white"/>
<path d="M54 31.5C54 32.3284 53.3284 33 52.5 33C51.6716 33 51 32.3284 51 31.5C51 30.6716 51.6716 30 52.5 30C53.3284 30 54 30.6716 54 31.5Z" fill="white"/>
</svg>
