<?xml version="1.0" encoding="utf-8"?>
<!-- Generator: Adobe Illustrator 24.0.1, SVG Export Plug-In . SVG Version: 6.00 Build 0)  -->
<svg version="1.1" id="Layer_1" xmlns="http://www.w3.org/2000/svg" xmlns:xlink="http://www.w3.org/1999/xlink" x="0px" y="0px"
	 viewBox="0 0 1477.8 222.6" style="enable-background:new 0 0 1477.8 222.6;" xml:space="preserve">
<style type="text/css">
	.st0{fill:#FFFFFF;}
</style>
<title>logo-white</title>
<g id="Layer_2_1_">
	<g id="Layer_1-2">
		<path class="st0" d="M1423.9,0c7.3,1.1,14.8,1.8,22,3.4c7.6,1.7,15,4.1,22.4,6.4c1.3,0.4,3.1,2.4,3.1,3.6
			c0.2,10.4,0.1,20.9,0.1,31.3c0,0.4-0.4,0.8-0.9,1.9c-1.5-0.9-2.9-1.6-4.1-2.6c-15.3-11.5-32.5-17.6-51.7-15.4
			c-6,0.8-11.8,3.1-16.6,6.8c-7.8,6.1-6.2,17.2,2.9,21.2c7.5,3.3,15.8,4.8,23.7,7.2c8.7,2.6,17.6,4.8,26.1,8
			c36.2,13.6,33.2,60.1,8.2,77.8c-11.9,8.4-25.1,12.1-39.5,13.3c-21.3,1.9-41.6-1.9-61.4-9.4c-3.6-1.4-5.2-3.1-5-7.2
			c0.4-7.9,0.1-15.9-1-23.7c-0.3,0.7-0.6,1.4-0.8,2.1c-7.1,22.4-24.2,32.8-45.9,36.9c-25.1,4.7-49.5,1.1-73.1-8.5
			c-2.9-1.2-4.1-2.6-4-5.8c0.2-10.7,0.1-21.5,0.1-33.4c1.8,0.9,3.6,1.9,5.3,3.1c16.7,12.7,35.2,20,56.4,18.4
			c5.3-0.4,10.4-1.7,15.2-3.9c10.7-4.8,11.5-20.4,0.2-25.2c-7.5-3.3-15.8-4.7-23.6-7.3c-10.2-3.3-20.8-5.9-30.4-10.4
			c-27-12.7-29.2-52.9-8-70.9c11.8-10,25.4-15.4,40.8-16.6c1.9-0.3,3.9-0.7,5.7-1.3h9c2.2,0.6,4.5,1,6.7,1.3
			c12.9,0.9,25.6,3.8,37.6,8.6c1.6,0.8,2.8,2.3,3.1,4.1c0.3,10.1,0.2,20.2,0.1,30.3c-0.2,0.9-0.5,1.7-1,2.5c-1.6-1-2.8-1.7-4-2.5
			c-15.3-11.5-32.4-17.6-51.6-15.5c-6,0.8-11.8,3.1-16.6,6.8c-7.8,6-6.2,16.7,2.6,21.3c3.6,1.7,7.3,3.1,11.1,4.1
			c12.1,3.4,24.4,6,36.3,10.1c15.8,5.5,27.7,15.9,28.6,33.3c0.4,8,4.3,11.3,9.5,15c16.1,11.3,33.7,17.9,53.6,16.1
			c6.2-0.6,12.2-2.5,17.6-5.7c6-3.8,7.9-11.8,4.1-17.8c-1.1-1.8-2.6-3.2-4.4-4.3c-5-3-10.8-4.9-16.5-6.4
			c-13.3-3.4-26.8-5.9-39.2-12.1c-26.1-13.1-27.8-48.8-13.3-65.9c8.8-10.4,20.1-16.6,33.1-19.9c6.1-1.5,12.3-2.3,18.5-3.4L1423.9,0z
			"/>
		<path class="st0" d="M216.7,0c3,0.7,6,1.6,9,2.1c32.6,5.4,51.5,30.3,56.5,59c3.6,20.5,2.9,41-5.4,60.3
			c-11.1,25.8-31.3,39.2-59.3,41.7c-14.1,1.3-27.8,0.3-41-5c-19.2-7.7-32-21.7-38.6-41c-8.6-25.3-8.4-50.8,2.2-75.5
			c10.4-24,29.5-37.1,55.4-40.3c1.4-0.3,2.8-0.8,4.2-1.3H216.7z M243.9,82.5c1-12-1.3-24-6.8-34.7c-6-11.8-15.5-18.2-29-18.3
			s-22.8,6.7-28.9,18.4c-7.5,14.6-8.3,30.3-6.3,46c1,8.6,3.6,17,7.7,24.7c12.2,21.8,41.5,22,54.9,0.9
			C242.7,108.3,244.7,95.8,243.9,82.5L243.9,82.5z"/>
		<path class="st0" d="M86.8,0c5.6,1.1,11.4,1.7,16.9,3.4c8.2,2.6,16.2,5.8,24.2,9c1.3,0.6,2.2,1.8,2.5,3.2
			c0.2,11.4,0.1,22.8,0.1,35.7c-2.8-1.5-4.8-2.1-6.4-3.4c-9.4-7.7-19.2-14.8-31.4-17.4C72,26.2,54.3,34.7,46,53.8
			c-8,18.7-8.2,38.1-0.1,56.9c8.8,20.2,31.4,29.6,52.5,21.4c8.5-3.3,15.9-9.3,23.8-14.1c2.4-1.4,4.6-3.1,8.1-5.5
			c0,13.1,0,24.5-0.1,35.9c-0.2,1.1-0.9,2-1.8,2.6c-28.3,14.3-57.5,18.3-87.3,5.4c-22.2-9.6-34-28-38.6-51
			c-4.1-20.6-3.6-41.3,4.7-60.9C18,19.1,37.5,4.7,65.1,1.3C66.4,1,67.6,0.5,68.8,0H86.8z"/>
		<path class="st0" d="M926.2,0c6.7,1.1,13.5,1.6,19.9,3.4c8.2,2.3,16.2,5.7,24.2,8.8c1.2,0.4,2.6,2,2.7,3.1
			c0.2,11.6,0.1,23.1,0.1,36.4c-3.1-2.2-5.1-3.4-6.9-4.9c-8.1-6.8-16.6-12.8-26.9-15.6c-21.7-5.9-41.2,2.1-50.2,22.8
			c-7.2,16.4-7.5,33.6-2.3,50.5c8.8,28.7,38.7,39.2,65.6,23.3c6.8-4,12.9-9.1,20.1-14.2c0.4,1.4,0.6,2.8,0.8,4.2
			c0.1,9.6,0.2,19.2-0.1,28.8c-0.2,2-1.2,3.9-2.9,5c-15.7,8.1-32.5,12.6-50.2,12.2c-25.3-0.6-47.4-8.4-62.3-30.2
			c-8.4-12.2-12-25.9-13.1-40.5c-1.2-15.5-0.5-30.8,5.2-45.4c10.9-28.1,31.5-43.8,61.8-46.5c1.6-0.3,3.2-0.7,4.7-1.3H926.2z"/>
		<path class="st0" d="M1058.1,0c6.7,1.1,13.5,1.6,19.9,3.4c8.2,2.3,16.2,5.7,24.2,8.8c1.2,0.4,2.6,2,2.7,3.1
			c0.2,11.6,0.1,23.1,0.1,36.4c-3.1-2.2-5.1-3.4-6.9-4.9c-8.1-6.8-16.6-12.8-26.9-15.6c-21.7-5.9-41.2,2.1-50.2,22.8
			c-7.2,16.4-7.5,33.6-2.3,50.5c8.8,28.7,38.7,39.2,65.6,23.3c6.8-4,12.9-9.1,20.1-14.2c0.4,1.4,0.6,2.8,0.8,4.2
			c0.1,9.6,0.2,19.2-0.1,28.9c-0.2,2-1.2,3.9-2.9,5c-15.7,8.1-32.5,12.6-50.2,12.2c-25.3-0.6-47.4-8.4-62.3-30.2
			c-8.3-12.2-12-25.9-13.1-40.5c-1.2-15.5-0.5-30.8,5.2-45.4c10.9-28.2,31.4-43.9,61.8-46.5c1.6-0.3,3.2-0.7,4.7-1.2H1058.1z"/>
		<path class="st0" d="M857.2,159.9c-12.5,0-24.5,0.2-36.4-0.2c-1.4,0-3.4-3.1-4-5.1c-8.5-27.1-16.8-54.2-25.2-81.3
			c-2.2-7.2-4.5-14.5-6.8-21.7c-0.4-1.2-0.9-2.3-1.9-4.8c-1,2.7-1.6,4.1-2.1,5.5c-10.6,34.4-21.2,68.7-31.7,103.1
			c-1.1,3.5-2.5,4.6-6.2,4.6c-24-0.2-48-0.2-71.9,0c-2.8,0.2-5.5-1.2-7-3.6c-12.5-16.8-25.2-33.4-37.9-50
			c-2.7-3.6-13.8-6.3-17.5-3.8c-1.1,0.7-1.5,3.1-1.5,4.8c-0.1,15.6-0.2,31.2,0,46.8c0.1,4.4-1,6.1-5.8,5.9c-8.8-0.4-17.7-0.4-26.5,0
			c-4.5,0.2-5.6-1.3-5.6-5.6c0.2-38.8,0.1-77.6,0.1-116.5c0-10.1,0.1-20.2,0-30.3c0-3.2,0.9-4.4,4.2-4.3c20.3,0.1,40.6-0.3,60.9,0.2
			c9.4,0.3,19,1.3,27.9,4c20.7,6.2,30.5,24.4,27.8,45.7C688.3,71,679,83,663.9,91.4c-0.9,0.5-1.7,1.1-3.1,2l49.9,62.9
			c3.2-9.4,6.1-17.6,8.9-25.8C733.3,89.9,747,49.2,760.7,8.5c1.3-4,3.2-5.4,7.4-5.2c10.7,0.3,21.3,0.2,32,0c3.4-0.1,4.9,0.9,6,4.2
			c16.6,49.5,33.3,99,50.1,148.4C856.6,157,856.8,158.2,857.2,159.9z M607.2,52.8c0,5.8-0.2,11.6,0.1,17.4c0.1,1.3,1.7,3.7,2.5,3.7
			c8.9-0.2,18,0.2,26.7-1.5c9.8-1.8,15.4-11.1,15-21.8c-0.3-10.5-4.9-16.5-15.9-18.2c-8.5-1.3-17.2-0.7-25.8-0.6
			c-0.9,0-2.5,2.4-2.5,3.7C607.1,41.2,607.3,47,607.2,52.8L607.2,52.8z"/>
		<path class="st0" d="M1220.1,205.8c0.6-0.2,0.5-0.1,0.3-0.1c-29.6,0.3-59.2,0.7-88.8,1c-20.8,0.3-41.6,0.6-62.3,1
			c-16.4,0.3-32.9,0.6-49.4,1l-55.9,1.1c-16,0.3-32,0.6-47.9,0.9l-57.4,1.1l-47.9,0.9l-110.3,2.1l-99.8,1.9
			c-37.3,0.7-74.6,1.4-111.8,2.1c-33.5,0.7-66.9,1.3-100.4,1.9c-29.1,0.6-58.3,1.2-87.4,1.9c-1.8,0-3.6,0-6,0
			c0-11.6-0.1-22.6,0.1-33.7c0-0.8,2-2.1,3-2.1c35,0.7,69.9,1.4,104.8,2.3c1.3,0,2.7,0.1,4,0.2c28,0.4,55.9,0.7,83.9,1.2
			c35.5,0.6,70.9,1.3,106.3,2c14.6,0.3,29.3,0.7,43.9,1c35.6,0.7,71.2,1.3,106.8,2c14.3,0.3,28.6,0.7,42.9,1
			c19.1,0.4,38.3,0.7,57.4,1c15.5,0.3,30.9,0.7,46.4,1c18,0.4,35.9,0.6,53.9,1c15.1,0.3,30.3,0.7,45.4,1c18.3,0.4,36.6,0.6,54.9,1
			c15.8,0.3,31.6,0.7,47.4,1c17.6,0.4,35.2,0.7,52.8,1c15.6,0.3,31.2,0.6,46.8,1C1204.3,204.7,1212.5,205.4,1220.1,205.8z"/>
		<path class="st0" d="M296,125.8V3.7c1.8-0.1,3.4-0.3,5-0.3c12.6,0,25.3,0.1,38-0.1c3.3,0,4.9,1.1,6.5,3.9
			c15.1,27.4,30.4,54.8,45.6,82.1c0.7,1.3,1.9,2.4,3.3,3c0.1-1.8,0.4-3.7,0.4-5.5c0-26,0.1-52.1-0.1-78.1c0-4.5,1.3-5.6,5.7-5.5
			c9.4,0.3,18.9,0.1,28.6,0.1v156.2c-1.6,0.1-3.1,0.3-4.7,0.3c-8.8,0-17.6-0.2-26.5,0.1c-3.9,0.1-6-1.1-7.8-4.5
			c-18.1-33-36.3-65.9-54.6-98.7c-1.1-1.9-2.2-3.8-3.4-5.8l-1.5,0.4v74.3L296,125.8z"/>
		<path class="st0" d="M518.2,159.6H480v-127h-46.7V3.6c1.6-0.1,3.2-0.3,4.9-0.3c40.4,0,80.9,0.1,121.3-0.1c4.5,0,5.8,1.4,5.5,5.7
			c-0.4,6-0.4,11.9,0,17.9c0.3,4.8-1.5,5.9-6,5.8c-11.6-0.3-23.3-0.1-35-0.1h-5.9L518.2,159.6z"/>
		<path class="st0" d="M1222.6,32.3c-2.2,0.1-3.5,0.2-4.8,0.2c-31.8,0-63.5-0.1-95.3,0.1c-4.2,0-5.5-1.2-5.3-5.3
			c0.3-6.5,0.2-12.9,0-19.4c-0.1-3.3,0.8-4.6,4.5-4.6c32.3,0.1,64.5,0.1,96.8,0c3.3,0,4.3,1,4.2,4.3
			C1222.5,15.6,1222.6,23.7,1222.6,32.3z"/>
		<path class="st0" d="M1222.6,131.5c0,8.6,0,17.2,0,25.8c0,3.6-2.8,2.6-4.7,2.6c-16.1,0.1-32.3,0-48.4,0c-15.8,0-31.6-0.1-47.4,0.1
			c-3.6,0-5.1-0.8-4.9-4.7c0.3-6.9,0.1-13.9,0.1-20.9c0-2.3,0.5-3.7,3.3-3.7c33.6,0.1,67.2,0.2,100.8,0.2
			C1221.8,131.1,1222.2,131.3,1222.6,131.5z"/>
		<path class="st0" d="M1167,61.1c15,0,30,0.1,45-0.1c3.6,0,5.1,0.8,4.9,4.7c-0.3,6.8-0.2,13.6-0.1,20.4c0.1,2.8-0.6,4.2-3.9,4.2
			c-30.6-0.1-61.3-0.1-91.9,0c-3.2,0-3.9-1.3-3.9-4.2c0.1-7,0.2-13.9,0-20.9c-0.1-3.3,1.2-4.2,4.4-4.2
			C1136.7,61.2,1151.9,61.1,1167,61.1z"/>
	</g>
</g>
</svg>
