<svg xmlns="http://www.w3.org/2000/svg" viewBox="0 0 1477.85 222.65"><defs><style>.cls-1{fill:#c74923;}</style></defs><title>logoi-primary</title><g id="Layer_2" data-name="Layer 2"><g id="Layer_1-2" data-name="Layer 1"><path class="cls-1" d="M1423.87,0c7.33,1.11,14.75,1.83,22,3.42,7.58,1.68,15,4.06,22.4,6.45,1.33.43,3.06,2.37,3.09,3.64.23,10.45.11,20.9.05,31.35,0,.43-.38.85-.9,1.91-1.47-.91-2.86-1.63-4.1-2.56-15.33-11.45-32.46-17.56-51.66-15.41a34.47,34.47,0,0,0-16.58,6.85c-7.79,6.08-6.23,17.2,2.88,21.19,7.5,3.28,15.77,4.82,23.68,7.2,8.71,2.61,17.57,4.83,26.06,8,36.19,13.57,33.2,60.12,8.22,77.77-11.89,8.4-25.13,12.05-39.5,13.33-21.33,1.9-41.58-1.88-61.36-9.45-3.56-1.36-5.19-3.06-5-7.17a122.26,122.26,0,0,0-1-23.73c-.28.69-.62,1.37-.84,2.08-7.07,22.44-24.24,32.83-45.88,36.89-25.11,4.72-49.51,1.14-73.11-8.48-2.89-1.18-4.08-2.55-4-5.76.2-10.73.07-21.46.07-33.4a55.54,55.54,0,0,1,5.27,3.06c16.68,12.67,35.19,19.95,56.42,18.41a45.82,45.82,0,0,0,15.24-3.91c10.69-4.81,11.48-20.35.22-25.24-7.51-3.26-15.78-4.74-23.63-7.27-10.21-3.29-20.79-5.89-30.43-10.42-27-12.7-29.16-52.88-8-70.92,11.77-10,25.4-15.37,40.77-16.58A43.28,43.28,0,0,0,1290,0h9a56.66,56.66,0,0,0,6.74,1.27,123.53,123.53,0,0,1,37.6,8.58,5.81,5.81,0,0,1,3.13,4.13c.27,10.1.15,20.22.09,30.33a8.3,8.3,0,0,1-1,2.49c-1.55-1-2.84-1.68-4-2.54-15.31-11.45-32.41-17.61-51.61-15.47a34.73,34.73,0,0,0-16.6,6.79c-7.83,6-6.16,16.73,2.64,21.32A57.71,57.71,0,0,0,1287.1,61c12.08,3.43,24.44,6,36.28,10.14,15.77,5.46,27.67,15.87,28.62,33.33.44,8,4.27,11.28,9.5,15,16.08,11.29,33.73,17.91,53.61,16.13a41.68,41.68,0,0,0,17.61-5.68,12.92,12.92,0,0,0-.36-22.11c-5-3-10.82-4.93-16.52-6.39-13.3-3.41-26.78-5.88-39.25-12.14-26.14-13.11-27.81-48.85-13.31-65.94,8.82-10.4,20.1-16.64,33.13-19.88,6.06-1.5,12.3-2.28,18.46-3.39Z"/><path class="cls-1" d="M216.68,0c3,.7,6,1.57,9,2.07,32.59,5.37,51.53,30.32,56.53,59,3.58,20.51,2.89,40.95-5.44,60.34-11.1,25.82-31.34,39.21-59.31,41.72-14.1,1.27-27.78.34-41-5-19.21-7.74-32-21.67-38.57-41-8.58-25.32-8.44-50.8,2.19-75.48,10.35-24,29.46-37.09,55.43-40.32A24.52,24.52,0,0,0,199.7,0Zm27.26,82.47a64.21,64.21,0,0,0-6.8-34.67c-6-11.77-15.48-18.22-29-18.3s-22.84,6.69-28.85,18.4c-7.49,14.58-8.26,30.3-6.31,46a69.31,69.31,0,0,0,7.74,24.71c12.18,21.82,41.53,22,54.88.87C242.69,108.27,244.69,95.84,243.94,82.47Z"/><path class="cls-1" d="M86.77,0c5.64,1.1,11.43,1.72,16.88,3.42,8.19,2.56,16.16,5.81,24.15,9a4.46,4.46,0,0,1,2.45,3.17c.18,11.41.11,22.83.11,35.74-2.79-1.46-4.84-2.13-6.39-3.41-9.41-7.74-19.21-14.79-31.44-17.37C72,26.17,54.26,34.71,46,53.82,38,72.56,37.76,91.9,45.92,110.68c8.79,20.21,31.39,29.59,52.53,21.43,8.48-3.28,15.91-9.25,23.79-14.06,2.37-1.45,4.6-3.12,8.11-5.51,0,13.14,0,24.53-.08,35.91a3.67,3.67,0,0,1-1.84,2.58c-28.3,14.27-57.51,18.3-87.29,5.44-22.18-9.58-34-28-38.63-51C-1.62,84.85-1.06,64.21,7.25,44.56,18,19.1,37.52,4.68,65.14,1.27A18.53,18.53,0,0,0,68.78,0Z"/><path class="cls-1" d="M926.2,0c6.66,1.1,13.48,1.61,19.93,3.44,8.24,2.34,16.22,5.67,24.23,8.77,1.15.44,2.64,2,2.66,3.07.19,11.55.12,23.1.12,36.39-3.12-2.2-5.11-3.41-6.87-4.89C958.19,40,949.63,34,939.33,31.18c-21.71-5.9-41.19,2.11-50.23,22.84-7.15,16.39-7.53,33.58-2.32,50.45,8.84,28.66,38.74,39.15,65.57,23.29,6.8-4,12.94-9.12,20.06-14.21a25.78,25.78,0,0,1,.78,4.25c.06,9.61.18,19.23-.1,28.84a6.73,6.73,0,0,1-2.9,5c-15.71,8.15-32.5,12.61-50.22,12.22-25.29-.56-47.36-8.38-62.34-30.2-8.36-12.17-12-25.92-13.12-40.53-1.23-15.51-.49-30.82,5.15-45.4,10.87-28.13,31.47-43.81,61.82-46.46A28.86,28.86,0,0,0,916.21,0Z"/><path class="cls-1" d="M1058.12,0c6.65,1.1,13.47,1.61,19.92,3.44,8.24,2.34,16.22,5.67,24.23,8.77,1.15.44,2.64,2,2.66,3.07.19,11.55.12,23.1.12,36.39-3.12-2.2-5.11-3.41-6.87-4.89-8.08-6.77-16.64-12.8-26.94-15.6-21.71-5.9-41.19,2.11-50.23,22.84-7.15,16.39-7.53,33.58-2.32,50.45,8.84,28.66,38.74,39.15,65.57,23.29,6.8-4,12.94-9.12,20.06-14.21a25.87,25.87,0,0,1,.78,4.24c.06,9.62.18,19.24-.1,28.85a6.73,6.73,0,0,1-2.9,5c-15.71,8.14-32.49,12.61-50.22,12.22-25.29-.56-47.36-8.38-62.34-30.2-8.35-12.17-12-25.92-13.12-40.53-1.23-15.51-.48-30.81,5.15-45.4C992.44,19.55,1013,3.87,1043.39,1.22A28.86,28.86,0,0,0,1048.12,0Z"/><path class="cls-1" d="M857.25,159.91c-12.49,0-24.45.17-36.4-.24-1.43,0-3.4-3.09-4-5.08-8.5-27.06-16.81-54.17-25.17-81.27q-3.36-10.84-6.8-21.68c-.38-1.19-.92-2.34-1.92-4.85-1,2.68-1.62,4.08-2.06,5.52C770.29,86.66,759.66,121,749.25,155.39c-1.06,3.53-2.52,4.64-6.18,4.61q-36-.24-71.93,0a7.71,7.71,0,0,1-7-3.55c-12.53-16.75-25.25-33.35-37.91-50-2.74-3.6-13.82-6.3-17.46-3.85-1.09.73-1.46,3.13-1.47,4.77-.1,15.59-.2,31.19,0,46.78.07,4.41-1,6.1-5.77,5.88-8.81-.4-17.66-.37-26.47,0-4.49.18-5.58-1.28-5.56-5.6.16-38.81.09-77.63.09-116.45,0-10.11.09-20.23,0-30.35,0-3.15.87-4.37,4.24-4.34,20.31.13,40.64-.33,60.93.25,9.37.26,19,1.27,27.94,4,20.65,6.23,30.52,24.42,27.84,45.66C688.27,71,679,83,663.86,91.41c-.86.48-1.65,1.07-3.1,2l49.89,62.9c3.25-9.45,6.11-17.6,8.88-25.79q20.64-61,41.14-122.06c1.34-4,3.18-5.37,7.4-5.24,10.65.31,21.32.24,32,0,3.37-.07,4.93.88,6,4.17Q831,81.65,856.19,155.78C856.59,157,856.82,158.21,857.25,159.91Zm-250-107.14c0,5.79-.16,11.59.13,17.37.06,1.32,1.68,3.7,2.54,3.68,8.92-.18,18,.17,26.7-1.47,9.77-1.84,15.36-11.11,15-21.78-.35-10.5-4.87-16.54-15.91-18.22-8.45-1.29-17.2-.73-25.81-.64-.9,0-2.48,2.36-2.54,3.69C607.1,41.18,607.27,47,607.26,52.77Z"/><path class="cls-1" d="M1220.1,205.8c.6-.19.47-.11.33-.11q-44.4.51-88.81,1-31.17.42-62.35,1c-16.45.29-32.91.65-49.36,1L964,209.76q-24,.47-47.9.94l-57.39,1.08-47.91.93-110.32,2.1-99.84,1.91q-55.92,1.07-111.84,2.1-50.19,1-100.36,1.94-43.7.88-87.38,1.87c-1.79,0-3.58,0-6,0,0-11.57-.06-22.62.14-33.67,0-.75,2-2.14,3-2.12q52.43,1,104.84,2.31c1.33,0,2.66.14,4,.16,28,.4,55.94.74,83.9,1.21q53.18.91,106.35,2c14.64.29,29.28.68,43.93,1q53.41,1,106.83,2c14.3.27,28.61.68,42.91,1,19.14.37,38.27.66,57.41,1,15.47.3,30.94.67,46.41,1,18,.35,35.93.65,53.89,1,15.13.3,30.26.68,45.39,1,18.3.36,36.59.65,54.88,1,15.79.3,31.58.67,47.38,1q26.42.53,52.85,1c15.62.31,31.24.56,46.85,1C1204.28,204.74,1212.54,205.38,1220.1,205.8Z"/><path class="cls-1" d="M296,125.77V3.68c1.78-.12,3.37-.31,5-.31,12.65,0,25.31.09,38-.09,3.29,0,4.93,1.08,6.5,3.94,15.1,27.44,30.38,54.78,45.62,82.13a7,7,0,0,0,3.27,3c.14-1.84.4-3.67.4-5.5,0-26,.12-52.08-.08-78.12,0-4.46,1.32-5.64,5.66-5.49,9.43.32,18.88.1,28.62.1V159.59c-1.57.11-3.15.31-4.74.31-8.82,0-17.65-.2-26.47.12-3.86.14-6-1.12-7.81-4.48q-27.15-49.44-54.59-98.73c-1.07-1.94-2.23-3.84-3.35-5.76l-1.48.4v74.32Z"/><path class="cls-1" d="M518.21,159.64H480V32.69H433.33V3.63c1.64-.09,3.24-.27,4.85-.27,40.44,0,80.89.06,121.34-.11,4.53,0,5.76,1.43,5.53,5.69a148.47,148.47,0,0,0,0,17.9c.31,4.76-1.51,5.86-6,5.75-11.64-.3-23.3-.1-35-.1h-5.91Z"/><path class="cls-1" d="M1222.64,32.27c-2.21.1-3.52.21-4.84.21-31.77,0-63.54-.07-95.31.1-4.15,0-5.52-1.16-5.32-5.3.31-6.45.21-12.92,0-19.38-.1-3.32.82-4.64,4.46-4.62q48.39.2,96.8,0c3.29,0,4.32,1,4.24,4.27C1222.51,15.64,1222.64,23.72,1222.64,32.27Z"/><path class="cls-1" d="M1222.62,131.51c0,8.59,0,17.17,0,25.75,0,3.59-2.78,2.62-4.72,2.63-16.13.05-32.27,0-48.4,0-15.8,0-31.6-.1-47.4.07-3.61,0-5.07-.84-4.92-4.68.27-6.95.12-13.91.06-20.87,0-2.34.53-3.7,3.32-3.69q50.39.19,100.77.25A7.62,7.62,0,0,1,1222.62,131.51Z"/><path class="cls-1" d="M1167,61.09c15,0,30,.11,45-.07,3.62,0,5.08.84,4.93,4.69-.28,6.78-.16,13.59-.05,20.39.05,2.8-.61,4.2-3.86,4.19q-45.95-.15-91.9,0c-3.23,0-3.93-1.35-3.88-4.17.11-7,.17-13.94,0-20.9-.09-3.32,1.19-4.21,4.38-4.18C1136.73,61.17,1151.88,61.1,1167,61.09Z"/></g></g></svg>