<svg xmlns="http://www.w3.org/2000/svg" viewBox="0 0 114.3 114.3"><defs><style>.cls-1{fill:#fff;}.cls-2{fill:none;stroke:#fff;stroke-miterlimit:10;stroke-width:2px;}</style></defs><title>expert</title><g id="Layer_2" data-name="Layer 2"><g id="Layer_1-2" data-name="Layer 1"><path class="cls-1" d="M48.12,49.53a5.62,5.62,0,0,0,5.33-3.83l0-.17-2.06-.69-.06.17a3.44,3.44,0,0,1-6.52,0l0-.17-2.06.69,0,.17a5.61,5.61,0,0,0,5.32,3.83Z"/><path class="cls-1" d="M53.56,70.18H42.69V76.7H53.56Zm-2.18,4.35H44.86V72.35h6.52Z"/><path class="cls-1" d="M47,78.87h2.17V81H47Z"/><path class="cls-1" d="M51.38,78.87h2.18V81H51.38Z"/><path class="cls-1" d="M47,83.22h2.17v2.17H47Z"/><path class="cls-1" d="M51.38,83.22h2.18v2.17H51.38Z"/><path class="cls-1" d="M85.07,57.14H72a3.26,3.26,0,0,0-3.26,3.26v1.44a20.47,20.47,0,0,0-15.62-8l0,0a7.62,7.62,0,0,0,6.95-7.58V45.19a4.35,4.35,0,0,0,4.34-4.35,4.28,4.28,0,0,0-1-2.78,12,12,0,0,0,1-4.82V31.85a6,6,0,0,0-4.84-5.91,3.83,3.83,0,0,1-2-1.05l-.75-.76a6,6,0,0,0-4.26-1.76H43.05A11.2,11.2,0,0,0,32.8,38.13a4.29,4.29,0,0,0-1,2.71,4.35,4.35,0,0,0,4.34,4.35h0v1.08a7.62,7.62,0,0,0,6.95,7.58l0,0a20.68,20.68,0,0,0-20,20.64v1.08a9.79,9.79,0,0,0,6.52,9.21v4.92H76.38a3.27,3.27,0,0,0,3.26-3.26V85.39h5.43a3.26,3.26,0,0,0,3.26-3.26V80a3.22,3.22,0,0,0-.85-2.17,3.26,3.26,0,0,0,.85-2.18V73.44a3.22,3.22,0,0,0-.85-2.17,3.26,3.26,0,0,0,.85-2.18V66.92a3.22,3.22,0,0,0-.85-2.17,3.26,3.26,0,0,0,.85-2.18V60.4A3.26,3.26,0,0,0,85.07,57.14ZM70.94,60.4A1.09,1.09,0,0,1,72,59.31h1.09v2.18h2.17V59.31h2.17v2.18h2.18V59.31h2.17v2.18H84V59.31h1.09a1.09,1.09,0,0,1,1.09,1.09v2.17a1.09,1.09,0,0,1-1.09,1.09H72a1.09,1.09,0,0,1-1.09-1.09Zm15.22,6.52v2.17a1.09,1.09,0,0,1-1.09,1.09H72a1.09,1.09,0,0,1-1.09-1.09V66.92A1.09,1.09,0,0,1,72,65.83h1.09V68h2.17V65.83h2.17V68h2.18V65.83h2.17V68H84V65.83h1.09A1.09,1.09,0,0,1,86.16,66.92Zm0,6.52v2.17a1.09,1.09,0,0,1-1.09,1.09H79.44a3.26,3.26,0,0,0-3.06-2.17H75.29V72.35h2.17v2.18h2.18V72.35h2.17v2.18H84V72.35h1.09A1.09,1.09,0,0,1,86.16,73.44ZM63.34,81A1.08,1.08,0,0,1,62.25,80V77.79a1.09,1.09,0,0,1,1.09-1.09h1.08v2.17H66.6V76.7h2.17v2.17h2.17V76.7h2.18v2.17h2.17V76.7h1.09a1.09,1.09,0,0,1,1.08,1.09V80A1.08,1.08,0,0,1,76.38,81Zm7.6-7.6A1.09,1.09,0,0,1,72,72.35h1.09v2.18H70.94Zm-2-7.36a3.34,3.34,0,0,0-.12.84v2.17a3.26,3.26,0,0,0,.85,2.18,3.22,3.22,0,0,0-.85,2.17v1.09H66.6V66.92H64.42v7.61H63.34a3.26,3.26,0,0,0-3.26,3.26V80a3.23,3.23,0,0,0,.84,2.17,3.25,3.25,0,0,0-.84,2.17v2.18a3.23,3.23,0,0,0,.2,1.08H57.9V69.09a3.27,3.27,0,0,0-3.26-3.26h-.89l1.59-9.55A18.3,18.3,0,0,1,68.89,66.08ZM36.17,78.23,37.39,77a1.07,1.07,0,0,1,.77-.32h.19a1.09,1.09,0,0,1,1.08,1.09v1.08h1.09a2.18,2.18,0,0,1,0,4.35H36.17ZM44.86,81a4.35,4.35,0,0,0-3.41-4.24,3.21,3.21,0,0,0-.93-1.43V69.09A1.08,1.08,0,0,1,41.61,68h13a1.08,1.08,0,0,1,1.09,1.08V87.56H40.52V85.39A4.34,4.34,0,0,0,44.86,81Zm5.85-27.16.48.95-3.07,3.83-3.06-3.83.48-.95Zm-2.59,8.48,2.32,3.47H45.81Zm1.35-1.9L53,56.07h.2l-1.33,8Zm-6.19-4.38,3.5,4.38L44.4,64l-1.33-7.94Zm5.93-19.59H47a3.23,3.23,0,0,0-.2-1.08h2.57A3.23,3.23,0,0,0,49.21,36.49Zm-4.35,0v2.18a1.08,1.08,0,0,1-1.08,1.08H39.43a1.08,1.08,0,0,1-1.08-1.08V35l0,0a3.79,3.79,0,0,0,1.69.4h3.71A1.08,1.08,0,0,1,44.86,36.49Zm6.52,0a1.09,1.09,0,0,1,1.09-1.08H56.3A1.6,1.6,0,0,1,57.9,37v1.66a1.08,1.08,0,0,1-1.08,1.08H52.47a1.08,1.08,0,0,1-1.09-1.08ZM60.08,43V38.67a2.17,2.17,0,0,1,0,4.34Zm-17-18.47H52.6a3.81,3.81,0,0,1,2.72,1.13l.76.76a6.07,6.07,0,0,0,3.08,1.65,3.85,3.85,0,0,1,3.09,3.77v1.39a9.76,9.76,0,0,1-.67,3.54,4.17,4.17,0,0,0-1.5-.29H60a3.76,3.76,0,0,0-3.72-3.25H40.07a1.62,1.62,0,0,1-.72-.17L39.23,33a1.56,1.56,0,0,1-.88-1.43A1.59,1.59,0,0,1,39.94,30h1.67V27.8H39.94a3.77,3.77,0,0,0-3.73,3.26l0,5.43h0a4.36,4.36,0,0,0-1.58.31,9,9,0,0,1,8.46-12.26ZM36.17,43a2.17,2.17,0,0,1,0-4.34c0,.06,0,.11,0,.17V43Zm2.18,3.26V41.73a3.23,3.23,0,0,0,1.08.2h4.35A3.26,3.26,0,0,0,47,38.67h2.17a3.26,3.26,0,0,0,3.26,3.26h4.35a3.23,3.23,0,0,0,1.08-.2v4.54a5.44,5.44,0,0,1-5.43,5.44H43.78A5.44,5.44,0,0,1,38.35,46.27Zm-13,29.34V74.53A18.48,18.48,0,0,1,40.91,56.3l1.59,9.53h-.89a3.27,3.27,0,0,0-3.26,3.26v5.44h-.19a3.24,3.24,0,0,0-2.31,1l-1.19,1.19a3.26,3.26,0,0,1-2.83-3.23V66.92H29.65v6.52A5.44,5.44,0,0,0,34,78.76v4.46H32.91A7.61,7.61,0,0,1,25.31,75.61Zm6.52,9.72a9.64,9.64,0,0,0,1.08.06h5.44v2.17H31.83Zm45.63,1.15a1.08,1.08,0,0,1-1.08,1.08h-13a1.08,1.08,0,0,1-1.09-1.08V84.3a1.09,1.09,0,0,1,1.09-1.08h1.08v2.17H66.6V83.22h2.17v2.17h2.17V83.22h2.18v2.17h2.17V83.22h1.09a1.09,1.09,0,0,1,1.08,1.08Zm8.7-4.35a1.09,1.09,0,0,1-1.09,1.09H79.44a3.43,3.43,0,0,0-.65-1.09A3.23,3.23,0,0,0,79.64,80V78.87h2.17V81H84V78.87h1.09A1.09,1.09,0,0,1,86.16,80Z"/><path class="cls-1" d="M84,28.89v23.9H81.81V33.24H75.29V52.79H73.12V37.58H66.6V55H90.5V28.89Zm-13,23.9H68.77v-13h2.17Zm6.52-17.38h2.18V52.79H77.46ZM88.33,52.79H86.16V31.06h2.17Z"/><circle class="cls-2" cx="57.15" cy="57.15" r="56.15"/></g></g></svg>