<svg xmlns="http://www.w3.org/2000/svg" viewBox="0 0 114.3 114.3"><defs><style>.cls-1{fill:none;stroke:#fff;stroke-miterlimit:10;stroke-width:2px;}.cls-2{fill:#fff;}</style></defs><title>mda</title><g id="Layer_2" data-name="Layer 2"><g id="Layer_1-2" data-name="Layer 1"><circle class="cls-1" cx="57.15" cy="57.15" r="56.15"/><path class="cls-2" d="M84.91,40h-24V26.11a1.26,1.26,0,0,0-1.27-1.26H29.39a1.25,1.25,0,0,0-1.26,1.26V88.19a1.25,1.25,0,0,0,1.26,1.26H84.91a1.25,1.25,0,0,0,1.26-1.26V41.25A1.25,1.25,0,0,0,84.91,40Zm-24,2.52H83.65v31.8H60.94ZM40.75,86.93V76.84h7.57V86.93Zm8.83-12.62H39.48a1.27,1.27,0,0,0-1.26,1.26V86.93H30.65V27.37H58.41V86.93H50.84V75.57A1.26,1.26,0,0,0,49.58,74.31ZM60.94,86.93V76.84H83.65V86.93Z"/><path class="cls-2" d="M43.27,34.94h2.52a1.26,1.26,0,0,0,1.27-1.26V31.16a1.27,1.27,0,0,0-1.27-1.27H43.27A1.26,1.26,0,0,0,42,31.16v2.52A1.25,1.25,0,0,0,43.27,34.94Z"/><path class="cls-2" d="M43.27,43.78h2.52a1.27,1.27,0,0,0,1.27-1.27V40a1.26,1.26,0,0,0-1.27-1.26H43.27A1.25,1.25,0,0,0,42,40v2.52A1.26,1.26,0,0,0,43.27,43.78Z"/><path class="cls-2" d="M43.27,52.61h2.52a1.27,1.27,0,0,0,1.27-1.26V48.82a1.27,1.27,0,0,0-1.27-1.26H43.27A1.26,1.26,0,0,0,42,48.82v2.53A1.26,1.26,0,0,0,43.27,52.61Z"/><path class="cls-2" d="M43.27,61.44h2.52a1.26,1.26,0,0,0,1.27-1.26V57.66a1.27,1.27,0,0,0-1.27-1.27H43.27A1.26,1.26,0,0,0,42,57.66v2.52A1.25,1.25,0,0,0,43.27,61.44Z"/><path class="cls-2" d="M43.27,70.27h2.52A1.26,1.26,0,0,0,47.06,69V66.49a1.26,1.26,0,0,0-1.27-1.26H43.27A1.25,1.25,0,0,0,42,66.49V69A1.25,1.25,0,0,0,43.27,70.27Z"/><path class="cls-2" d="M34.44,34.94H37a1.25,1.25,0,0,0,1.26-1.26V31.16A1.26,1.26,0,0,0,37,29.89H34.44a1.26,1.26,0,0,0-1.26,1.27v2.52A1.25,1.25,0,0,0,34.44,34.94Z"/><path class="cls-2" d="M34.44,43.78H37a1.26,1.26,0,0,0,1.26-1.27V40A1.25,1.25,0,0,0,37,38.73H34.44A1.25,1.25,0,0,0,33.18,40v2.52A1.26,1.26,0,0,0,34.44,43.78Z"/><path class="cls-2" d="M34.44,52.61H37a1.26,1.26,0,0,0,1.26-1.26V48.82A1.26,1.26,0,0,0,37,47.56H34.44a1.26,1.26,0,0,0-1.26,1.26v2.53A1.26,1.26,0,0,0,34.44,52.61Z"/><path class="cls-2" d="M34.44,61.44H37a1.25,1.25,0,0,0,1.26-1.26V57.66A1.26,1.26,0,0,0,37,56.39H34.44a1.26,1.26,0,0,0-1.26,1.27v2.52A1.25,1.25,0,0,0,34.44,61.44Z"/><path class="cls-2" d="M34.44,70.27H37A1.25,1.25,0,0,0,38.22,69V66.49A1.25,1.25,0,0,0,37,65.23H34.44a1.25,1.25,0,0,0-1.26,1.26V69A1.25,1.25,0,0,0,34.44,70.27Z"/><path class="cls-2" d="M54.63,29.89H52.1a1.27,1.27,0,0,0-1.26,1.27v2.52a1.26,1.26,0,0,0,1.26,1.26h2.53a1.26,1.26,0,0,0,1.26-1.26V31.16A1.27,1.27,0,0,0,54.63,29.89Z"/><path class="cls-2" d="M54.63,38.73H52.1A1.26,1.26,0,0,0,50.84,40v2.52a1.26,1.26,0,0,0,1.26,1.26h2.53a1.26,1.26,0,0,0,1.26-1.26V40A1.26,1.26,0,0,0,54.63,38.73Z"/><path class="cls-2" d="M54.63,47.56H52.1a1.27,1.27,0,0,0-1.26,1.26v2.53a1.27,1.27,0,0,0,1.26,1.26h2.53a1.27,1.27,0,0,0,1.26-1.26V48.82A1.27,1.27,0,0,0,54.63,47.56Z"/><path class="cls-2" d="M54.63,56.39H52.1a1.27,1.27,0,0,0-1.26,1.27v2.52a1.26,1.26,0,0,0,1.26,1.26h2.53a1.26,1.26,0,0,0,1.26-1.26V57.66A1.27,1.27,0,0,0,54.63,56.39Z"/><path class="cls-2" d="M54.63,65.23H52.1a1.26,1.26,0,0,0-1.26,1.26V69a1.26,1.26,0,0,0,1.26,1.26h2.53A1.26,1.26,0,0,0,55.89,69V66.49A1.26,1.26,0,0,0,54.63,65.23Z"/><path class="cls-2" d="M78,47.56H75.45a1.26,1.26,0,0,0-1.26,1.26v2.53a1.26,1.26,0,0,0,1.26,1.26H78a1.26,1.26,0,0,0,1.26-1.26V48.82A1.26,1.26,0,0,0,78,47.56Z"/><path class="cls-2" d="M78,56.39H75.45a1.26,1.26,0,0,0-1.26,1.27v2.52a1.25,1.25,0,0,0,1.26,1.26H78a1.25,1.25,0,0,0,1.26-1.26V57.66A1.26,1.26,0,0,0,78,56.39Z"/><path class="cls-2" d="M78,65.23H75.45a1.25,1.25,0,0,0-1.26,1.26V69a1.25,1.25,0,0,0,1.26,1.26H78A1.25,1.25,0,0,0,79.23,69V66.49A1.25,1.25,0,0,0,78,65.23Z"/><path class="cls-2" d="M69.14,47.56H66.61a1.27,1.27,0,0,0-1.26,1.26v2.53a1.27,1.27,0,0,0,1.26,1.26h2.53a1.26,1.26,0,0,0,1.26-1.26V48.82A1.26,1.26,0,0,0,69.14,47.56Z"/><path class="cls-2" d="M69.14,56.39H66.61a1.27,1.27,0,0,0-1.26,1.27v2.52a1.26,1.26,0,0,0,1.26,1.26h2.53a1.25,1.25,0,0,0,1.26-1.26V57.66A1.26,1.26,0,0,0,69.14,56.39Z"/><path class="cls-2" d="M69.14,65.23H66.61a1.26,1.26,0,0,0-1.26,1.26V69a1.26,1.26,0,0,0,1.26,1.26h2.53A1.25,1.25,0,0,0,70.4,69V66.49A1.25,1.25,0,0,0,69.14,65.23Z"/></g></g></svg>