<svg xmlns="http://www.w3.org/2000/svg" viewBox="0 0 114.3 114.3"><defs><style>.cls-1{fill:#fff;}.cls-2{fill:none;stroke:#fff;stroke-miterlimit:10;stroke-width:2px;}</style></defs><title>artisan</title><g id="Layer_2" data-name="Layer 2"><g id="Layer_1-2" data-name="Layer 1"><circle class="cls-1" cx="48.01" cy="37.65" r="1.22"/><circle class="cls-1" cx="40.7" cy="37.65" r="1.22"/><path class="cls-1" d="M44.36,46.18a4.88,4.88,0,0,0,4.87-4.87H46.79a2.44,2.44,0,1,1-4.87,0H39.48A4.88,4.88,0,0,0,44.36,46.18Z"/><path class="cls-1" d="M90.31,56.58l-11.9-8.24a7.57,7.57,0,0,0,.07-.94,7.32,7.32,0,0,0-7.31-7.31,7.24,7.24,0,0,0-4.25,1.38,1.2,1.2,0,0,0-.51,1,1.23,1.23,0,0,0,.52,1l2.49,1.72a1.23,1.23,0,0,1,.31,1.7,1.26,1.26,0,0,1-1.7.31l-2.19-1.52a1.18,1.18,0,0,0-1.19-.11,1.21,1.21,0,0,0-.71,1l0,.16a5.83,5.83,0,0,0-.06.72,7.32,7.32,0,0,0,7.32,7.31,7.08,7.08,0,0,0,2.77-.57l.6.42-4.89,7L61.43,55.8A16.59,16.59,0,0,0,54.34,53l-4.13-.59-.7-2.81a9.44,9.44,0,0,0,3.13-3.41H54.1A4.88,4.88,0,0,0,59,41.31V34H60.2a3.66,3.66,0,0,0,0-7.32H58a12.23,12.23,0,0,0-11.18-7.31H41.92A12.21,12.21,0,0,0,29.73,31.56v9.75a4.88,4.88,0,0,0,4.88,4.87h1.46a9.28,9.28,0,0,0,3.13,3.41l-.7,2.82-5.13.73A12.74,12.74,0,0,0,22.42,65.76V76.65a6.09,6.09,0,0,0,6.09,6.09h1.22V94.93H59V68.78l8,3.54a7.72,7.72,0,0,0,3.18.67,7.85,7.85,0,0,0,6.45-3.37L83,60.39l3.19,2.21a3.66,3.66,0,0,0,4.16-6Zm-47.81.7-3,3V55Zm1.86,1.59L47.51,62H41.2ZM49.23,55V60.3l-3-3ZM54.1,43.75h-.48a13.78,13.78,0,0,0,.48-3.66V38.87a2.44,2.44,0,0,1,0,4.88Zm2.44-6.64a4.81,4.81,0,0,0-2.44-.68V34h2.44Zm3.66-8a1.22,1.22,0,0,1,0,2.44H44.56A3.67,3.67,0,0,1,48,29.12ZM41.92,21.81h4.87a9.78,9.78,0,0,1,8.45,4.87H48a6.11,6.11,0,0,0-6,4.88H32.17A9.76,9.76,0,0,1,41.92,21.81ZM34.61,34v2.43a4.81,4.81,0,0,0-2.44.68V34Zm0,9.75a2.44,2.44,0,1,1,0-4.88v1.22a13.78,13.78,0,0,0,.48,3.66ZM37,40.09V34H51.67v6.09c0,5.18-2.87,8.53-7.31,8.53S37,45.27,37,40.09Zm7.32,11a9.83,9.83,0,0,0,2.9-.43L47.85,53l-3.49,2.62L40.86,53l.59-2.38a9.84,9.84,0,0,0,2.91.43ZM33.71,55.55,37,55.07v9.39H51.67V55.07l2.32.34a13.23,13.23,0,0,1,2.55.64V85.18H54.1V66.9H34.61V73H32.17V55.91a10.41,10.41,0,0,1,1.54-.36ZM37,87.62V82.74h4.88a4.88,4.88,0,0,0,0-9.75H37V69.34H51.67V87.62Zm4.88-12.19a2.44,2.44,0,0,1,0,4.88H39.48V75.43ZM24.86,76.65V65.76a10.26,10.26,0,0,1,4.59-8.58l.28-.17V75.43H37v4.88H28.51A3.67,3.67,0,0,1,24.86,76.65Zm9.75,6.09v2.44H32.17V82.74Zm-2.44,4.88h2.44v2.43h8.53v2.44h-11Zm13.4,4.87V90.05H54.1V87.62h2.44v4.87Zm29-24.26a5.4,5.4,0,0,1-4.45,2.33,5.32,5.32,0,0,1-2.19-.47l-9-4v-9c.36.21.72.42,1.06.65l10.21,7.15,3.48-5,4.4,3.14Zm4.93-7.13L75.13,58l1.41-2L81,59Zm9.72-.82a1.26,1.26,0,0,1-1.7.31L74.74,51.73a1.24,1.24,0,0,0-.69-.21,1.19,1.19,0,0,0-.58.15,4.82,4.82,0,0,1-6.85-2.5l0,0a3.74,3.74,0,0,0,5.08-.92,3.66,3.66,0,0,0-.92-5.09l-.75-.52a4.56,4.56,0,0,1,1.11-.13A4.88,4.88,0,0,1,76,47.4a4.54,4.54,0,0,1-.17,1.19,1.23,1.23,0,0,0,.49,1.3l12.56,8.7a1.15,1.15,0,0,1,.5.78,1.21,1.21,0,0,1-.19.91Z"/><circle class="cls-2" cx="57.15" cy="57.15" r="56.15"/></g></g></svg>