<svg xmlns="http://www.w3.org/2000/svg" viewBox="0 0 114.3 114.3"><defs><style>.cls-1{fill:#fff;}.cls-2{fill:none;stroke:#fff;stroke-miterlimit:10;stroke-width:2px;}</style></defs><title>contractor</title><g id="Layer_2" data-name="Layer 2"><g id="Layer_1-2" data-name="Layer 1"><circle class="cls-1" cx="52.28" cy="44.27" r="1.22"/><circle class="cls-1" cx="62.03" cy="44.27" r="1.22"/><path class="cls-1" d="M59.59,51.58H52.28V54h7.31a3.66,3.66,0,0,0,3.65-3.65H60.81A1.22,1.22,0,0,1,59.59,51.58Z"/><path class="cls-1" d="M82.64,46.34a.83.83,0,0,1-.6-.65,25.43,25.43,0,0,0-3.12-7.54.88.88,0,0,1,0-.95,3.24,3.24,0,0,0-.49-4L75.51,30.3a3.24,3.24,0,0,0-3.34-.77,15.82,15.82,0,0,0-30,0,3.26,3.26,0,0,0-3.34.77l-2.92,2.93a3.27,3.27,0,0,0-.46,4,.84.84,0,0,1,0,.89,25.43,25.43,0,0,0-3.12,7.54.87.87,0,0,1-.67.67,3.25,3.25,0,0,0-2.47,3.16v4.13a3.28,3.28,0,0,0,2.54,3.18.83.83,0,0,1,.6.65A25.43,25.43,0,0,0,35.38,65a.88.88,0,0,1,0,.15,20.54,20.54,0,0,0-3.87,12v1.21a11,11,0,0,0,7.31,10.33v5.52H75.43V88.72a11,11,0,0,0,7.31-10.33V77.18a20.54,20.54,0,0,0-3.87-12s0-.11,0-.15A25.43,25.43,0,0,0,82,57.48a.87.87,0,0,1,.67-.67,3.24,3.24,0,0,0,2.47-3.16V49.52a3.27,3.27,0,0,0-2.54-3.18ZM65.89,56.83a7.3,7.3,0,0,0,2.23-5.25A4.87,4.87,0,0,0,73,46.71V42.48a18.24,18.24,0,0,1,.44,17.42A20.6,20.6,0,0,0,65.89,56.83Zm3.45,30.1H64.46a2.44,2.44,0,0,1,0-4.88h1.22V80.83a1.22,1.22,0,0,1,1.22-1.22h.21A1.22,1.22,0,0,1,68,80l1.37,1.37Zm-6.1-7.15a4.86,4.86,0,0,0,0,9.41V91.8H51.06V69.86H63.24ZM48.62,76.46l-6.95-6.95a1.18,1.18,0,0,1-.36-.86,1.2,1.2,0,0,1,.36-.87,1.24,1.24,0,0,1,1.72,0L48.62,73ZM41.31,72.6l7,7H43.75a2.43,2.43,0,0,1-2.44-2.43Zm-.44-12.7a18.24,18.24,0,0,1,.44-17.42v4.23a4.87,4.87,0,0,0,4.87,4.87,7.27,7.27,0,0,0,2.24,5.25,20.57,20.57,0,0,0-7.55,3.07Zm1.66-24.16H71.77a1.22,1.22,0,0,1,0,2.44H42.53a1.22,1.22,0,0,1,0-2.44ZM57.15,64.5l2.34,2.93H54.81Zm0-3.67L55.22,58.9h3.86Zm3.66-4.37H53.49a4.88,4.88,0,0,1-4.87-4.88v-11H65.68v11A4.88,4.88,0,0,1,60.81,56.46ZM46.18,49.15a2.44,2.44,0,0,1,0-4.88Zm0-7.31a4.79,4.79,0,0,0-2.43.67V40.62h2.43Zm21.94,2.43a2.44,2.44,0,0,1,0,4.88Zm2.44-1.76a4.83,4.83,0,0,0-2.44-.67V40.62h2.44Zm-15,20.13-2.33,2.91-.58-5.82Zm3.26,0,2.91-2.91-.58,5.82ZM70.49,33.3H65.68V28.43H63.24V33.3H60.81V21.64A13.4,13.4,0,0,1,70.49,33.3ZM58.37,21.18V33.3H55.93V21.18c.4,0,.81-.06,1.22-.06S58,21.14,58.37,21.18Zm-4.88.46V33.3H51.06V28.43H48.62V33.3H43.81A13.4,13.4,0,0,1,53.49,21.64ZM34.64,56.92a3.34,3.34,0,0,0-2.46-2.48.8.8,0,0,1-.62-.79V49.52a.83.83,0,0,1,.69-.81,3.3,3.3,0,0,0,2.39-2.46,22.76,22.76,0,0,1,2.81-6.82,3.31,3.31,0,0,0,0-3.48.83.83,0,0,1,.12-1L40.52,32a.8.8,0,0,1,1-.13l0,0a13.81,13.81,0,0,0-.18,1.59,3.62,3.62,0,0,0-1.19,6.22A20.66,20.66,0,0,0,38.9,61.38a21.07,21.07,0,0,0-1.8,1.74,22.94,22.94,0,0,1-2.46-6.2ZM34,78.39V77.18A18.29,18.29,0,0,1,50.09,59l.84,8.39H48.62v2.14l-3.51-3.51a3.75,3.75,0,0,0-5.17,0,3.64,3.64,0,0,0-1.07,2.59v8.53a4.88,4.88,0,0,0,4.88,4.87h4.87v4.88H42.53A8.54,8.54,0,0,1,34,78.39Zm7.31,10.9a9.76,9.76,0,0,0,1.22.07h6.09V91.8H41.31ZM73,91.8H65.68V89.36h6.09A9.76,9.76,0,0,0,73,89.29Zm7.32-13.41a8.55,8.55,0,0,1-8.54,8.54V81.88a4.88,4.88,0,0,0,3.66-4.7V68.65H73v8.53a2.44,2.44,0,0,1-2,2.39l-1.33-1.32a3.61,3.61,0,0,0-2.58-1.07H66.9a3.51,3.51,0,0,0-1.22.21v-10H63.37L64.21,59a18.3,18.3,0,0,1,16.1,18.14Zm2.43-24.74a.83.83,0,0,1-.68.81,3.27,3.27,0,0,0-2.39,2.46,23.3,23.3,0,0,1-2.47,6.2,21.13,21.13,0,0,0-1.8-1.74,20.66,20.66,0,0,0-1.27-21.65,3.62,3.62,0,0,0-1.19-6.22,13.81,13.81,0,0,0-.18-1.59l0,0a.82.82,0,0,1,1,.13L76.71,35a.85.85,0,0,1,.09,1,3.28,3.28,0,0,0,0,3.43,22.76,22.76,0,0,1,2.81,6.82,3.34,3.34,0,0,0,2.46,2.48.8.8,0,0,1,.62.79Z"/><circle class="cls-2" cx="57.15" cy="57.15" r="56.15"/></g></g></svg>