<svg xmlns="http://www.w3.org/2000/svg" viewBox="0 0 114.3 114.3"><defs><style>.cls-1{fill:#fff;}.cls-2{fill:none;stroke:#fff;stroke-miterlimit:10;stroke-width:2px;}</style></defs><title>supplier</title><g id="Layer_2" data-name="Layer 2"><g id="Layer_1-2" data-name="Layer 1"><path class="cls-1" d="M25.42,55.69h2.23A5.06,5.06,0,0,0,37,57.57a5.06,5.06,0,0,0,9.36-1.88h7.36a5.06,5.06,0,0,0,10,0h4.41a.72.72,0,0,0,.72-.72V42.65a.65.65,0,0,0-.1-.36l-8-13.76a.72.72,0,0,0-.63-.37H53.67V24.54a.73.73,0,0,0-.73-.72H25.42a.73.73,0,0,0-.73.72V55A.73.73,0,0,0,25.42,55.69Zm7.24,2.9A3.63,3.63,0,1,1,36.28,55,3.63,3.63,0,0,1,32.66,58.59Zm8.69,0A3.63,3.63,0,1,1,45,55,3.63,3.63,0,0,1,41.35,58.59Zm17.39,0A3.63,3.63,0,1,1,62.36,55,3.63,3.63,0,0,1,58.74,58.59Zm2.71-26.08L65.22,39H58V32.51ZM36.28,25.27h5.8v2.89a.72.72,0,0,0,.72.73.73.73,0,0,0,.73-.73V25.27h8.69v5.07H42.8a.72.72,0,0,0-.72.72v4.77l-2.39-2.38a.71.71,0,0,0-1,0l-2.39,2.38Zm-10.14,0h8.7v5.07h-8.7Zm0,6.52h8.7v5.79a.72.72,0,0,0,1.23.51L39.18,35l3.11,3.11a.74.74,0,0,0,.51.22.67.67,0,0,0,.28-.06.73.73,0,0,0,.45-.67V31.79h8.69V46.27H26.14Zm0,15.93h26.8a.73.73,0,0,0,.73-.72V29.61h6.1l.84,1.45H57.29a.73.73,0,0,0-.72.73v8a.72.72,0,0,0,.72.73h8.77l1.37,2.37V54.24H63.75a5.06,5.06,0,0,0-10,0H46.37A5.06,5.06,0,0,0,37,52.37a5.06,5.06,0,0,0-9.36,1.87H26.14Z"/><circle class="cls-1" cx="28.32" cy="44.1" r="0.72"/><circle class="cls-1" cx="31.21" cy="44.1" r="0.72"/><circle class="cls-1" cx="34.11" cy="44.1" r="0.72"/><path class="cls-1" d="M87.47,37a5.08,5.08,0,1,0-6.75,0,5.07,5.07,0,0,0-3.87,4.92v3.62a.72.72,0,0,0,.72.72h13a.73.73,0,0,0,.73-.72V41.93A5.07,5.07,0,0,0,87.47,37Zm-7-3.77a3.63,3.63,0,1,1,3.62,3.62A3.63,3.63,0,0,1,80.47,33.24Zm9.42,11.59H78.3v-2.9a3.62,3.62,0,0,1,3.62-3.62h4.35a3.63,3.63,0,0,1,3.62,3.62Z"/><path class="cls-1" d="M41.35,52.79A2.18,2.18,0,1,0,43.53,55,2.18,2.18,0,0,0,41.35,52.79Zm0,2.9a.72.72,0,0,1-.72-.72.73.73,0,1,1,.72.72Z"/><path class="cls-1" d="M58.74,52.79A2.18,2.18,0,1,0,60.91,55,2.18,2.18,0,0,0,58.74,52.79Zm0,2.9A.72.72,0,0,1,58,55a.72.72,0,1,1,1.44,0A.72.72,0,0,1,58.74,55.69Z"/><path class="cls-1" d="M32.66,52.79A2.18,2.18,0,1,0,34.84,55,2.18,2.18,0,0,0,32.66,52.79Zm0,2.9a.72.72,0,0,1-.72-.72.73.73,0,0,1,.72-.73.73.73,0,0,1,.73.73A.73.73,0,0,1,32.66,55.69Z"/><path class="cls-1" d="M55.84,44.1h2.9a.72.72,0,0,0,.72-.72.73.73,0,0,0-.72-.73h-2.9a.73.73,0,0,0-.72.73A.72.72,0,0,0,55.84,44.1Z"/><path class="cls-1" d="M90.61,76.7H78.3a.73.73,0,0,0-.73.72V89H53.67V74.83l3.62-3.63v3.33a.73.73,0,0,0,1.24.51l3.83-3.84v3.33A.73.73,0,0,0,63.6,75l3.83-3.84v3.33a.73.73,0,0,0,1.24.51L72.5,71.2v3.33a.73.73,0,0,0,1.24.51l2.9-2.9h0l.93-.94v3.33a.73.73,0,0,0,.73.72.72.72,0,0,0,.72-.72V69.45a.71.71,0,0,0-.44-.66.72.72,0,0,0-.79.15l-.94.94v-12a.72.72,0,0,0-.72-.72h-2.9a.73.73,0,0,0-.73.72V69.15l-3.62,3.63V69.45a.73.73,0,0,0-1.24-.51l-3.83,3.84V69.45a.73.73,0,0,0-1.24-.51l-3.83,3.84V69.45a.73.73,0,0,0-1.24-.51L52.43,74a.76.76,0,0,0-.21.52V89H50.05V85.39a.73.73,0,0,0-.73-.72H45a.73.73,0,0,0-.73.72V89H42.08V65.83H52.22V70.9a.73.73,0,1,0,1.45,0V65.11a.73.73,0,0,0-.73-.73H41.35a.73.73,0,0,0-.72.73v6.52H33.39a.73.73,0,0,0-.73.72V89H29V86.74a2.89,2.89,0,0,0,2.07-3.61L29,75.78a.72.72,0,0,0-1.39,0l-2.1,7.35a2.89,2.89,0,0,0,2.07,3.61V89H25.42a.73.73,0,0,0-.73.73.73.73,0,0,0,.73.72H90.61a.73.73,0,0,0,.73-.72V77.42A.73.73,0,0,0,90.61,76.7ZM74,58.59H75.4V71.33L74,72.78ZM27.15,84.81a1.44,1.44,0,0,1-.24-1.28l1.41-4.92,1.4,4.92a1.44,1.44,0,0,1-.24,1.28A1.5,1.5,0,0,1,27.15,84.81ZM40.63,89H34.11V73.08h6.52Zm8,0H45.7V86.12h2.9Zm36.94,0H83.37V86.84h2.17Zm4.35,0H87V86.84h.73a.72.72,0,0,0,.72-.72.73.73,0,0,0-.72-.73H81.2a.73.73,0,0,0-.73.73.73.73,0,0,0,.73.72h.72V89H79V78.15H89.89Z"/><path class="cls-1" d="M56.57,78.15h-.73a.72.72,0,0,0-.72.72.73.73,0,0,0,.72.73h.73a.73.73,0,0,0,.72-.73A.72.72,0,0,0,56.57,78.15Z"/><path class="cls-1" d="M60.19,78.15h-.73a.72.72,0,0,0-.72.72.73.73,0,0,0,.72.73h.73a.73.73,0,0,0,.72-.73A.72.72,0,0,0,60.19,78.15Z"/><path class="cls-1" d="M63.81,78.15h-.72a.73.73,0,0,0-.73.72.73.73,0,0,0,.73.73h.72a.73.73,0,0,0,.73-.73A.73.73,0,0,0,63.81,78.15Z"/><path class="cls-1" d="M67.43,78.15h-.72a.73.73,0,0,0-.73.72.73.73,0,0,0,.73.73h.72a.73.73,0,0,0,.73-.73A.73.73,0,0,0,67.43,78.15Z"/><path class="cls-1" d="M71.05,78.15h-.72a.72.72,0,0,0-.72.72.73.73,0,0,0,.72.73h.72a.73.73,0,0,0,.73-.73A.73.73,0,0,0,71.05,78.15Z"/><path class="cls-1" d="M74.68,78.15H74a.72.72,0,0,0-.72.72.73.73,0,0,0,.72.73h.73a.73.73,0,0,0,.72-.73A.72.72,0,0,0,74.68,78.15Z"/><path class="cls-1" d="M56.57,81h-.73a.73.73,0,0,0-.72.73.72.72,0,0,0,.72.72h.73a.72.72,0,0,0,.72-.72A.73.73,0,0,0,56.57,81Z"/><path class="cls-1" d="M60.19,81h-.73a.73.73,0,0,0-.72.73.72.72,0,0,0,.72.72h.73a.72.72,0,0,0,.72-.72A.73.73,0,0,0,60.19,81Z"/><path class="cls-1" d="M63.81,81h-.72a.73.73,0,0,0-.73.73.73.73,0,0,0,.73.72h.72a.73.73,0,0,0,.73-.72A.73.73,0,0,0,63.81,81Z"/><path class="cls-1" d="M67.43,81h-.72a.73.73,0,0,0-.73.73.73.73,0,0,0,.73.72h.72a.73.73,0,0,0,.73-.72A.73.73,0,0,0,67.43,81Z"/><path class="cls-1" d="M71.05,81h-.72a.73.73,0,0,0-.72.73.72.72,0,0,0,.72.72h.72a.73.73,0,0,0,.73-.72A.73.73,0,0,0,71.05,81Z"/><path class="cls-1" d="M74.68,81H74a.73.73,0,0,0-.72.73.72.72,0,0,0,.72.72h.73a.72.72,0,0,0,.72-.72A.73.73,0,0,0,74.68,81Z"/><path class="cls-1" d="M56.57,83.94h-.73a.73.73,0,0,0-.72.73.72.72,0,0,0,.72.72h.73a.72.72,0,0,0,.72-.72A.73.73,0,0,0,56.57,83.94Z"/><path class="cls-1" d="M60.19,83.94h-.73a.73.73,0,0,0-.72.73.72.72,0,0,0,.72.72h.73a.72.72,0,0,0,.72-.72A.73.73,0,0,0,60.19,83.94Z"/><path class="cls-1" d="M63.81,83.94h-.72a.73.73,0,0,0-.73.73.73.73,0,0,0,.73.72h.72a.73.73,0,0,0,.73-.72A.73.73,0,0,0,63.81,83.94Z"/><path class="cls-1" d="M45.7,68H45a.72.72,0,1,0,0,1.44h.72a.72.72,0,1,0,0-1.44Z"/><path class="cls-1" d="M49.32,68H48.6a.72.72,0,1,0,0,1.44h.72a.72.72,0,1,0,0-1.44Z"/><path class="cls-1" d="M45.7,70.9H45a.73.73,0,0,0-.73.73.73.73,0,0,0,.73.72h.72a.73.73,0,0,0,.73-.72A.73.73,0,0,0,45.7,70.9Z"/><path class="cls-1" d="M49.32,70.9H48.6a.73.73,0,0,0-.73.73.73.73,0,0,0,.73.72h.72a.73.73,0,0,0,.73-.72A.73.73,0,0,0,49.32,70.9Z"/><path class="cls-1" d="M45.7,73.8H45a.73.73,0,1,0,0,1.45h.72a.73.73,0,1,0,0-1.45Z"/><path class="cls-1" d="M36.28,76h2.18a.72.72,0,1,0,0-1.44H36.28a.72.72,0,0,0,0,1.44Z"/><path class="cls-1" d="M36.28,78.87h2.18a.72.72,0,0,0,.72-.72.73.73,0,0,0-.72-.73H36.28a.73.73,0,0,0-.72.73A.72.72,0,0,0,36.28,78.87Z"/><path class="cls-1" d="M36.28,81.77h2.18a.73.73,0,0,0,0-1.45H36.28a.73.73,0,0,0,0,1.45Z"/><path class="cls-1" d="M36.28,84.67h2.18a.73.73,0,0,0,.72-.73.72.72,0,0,0-.72-.72H36.28a.72.72,0,0,0-.72.72A.73.73,0,0,0,36.28,84.67Z"/><path class="cls-1" d="M49.32,73.8H48.6a.73.73,0,1,0,0,1.45h.72a.73.73,0,1,0,0-1.45Z"/><path class="cls-1" d="M45.7,76.7H45a.73.73,0,0,0-.73.72.73.73,0,0,0,.73.73h.72a.73.73,0,0,0,.73-.73A.73.73,0,0,0,45.7,76.7Z"/><path class="cls-1" d="M49.32,76.7H48.6a.73.73,0,0,0-.73.72.73.73,0,0,0,.73.73h.72a.73.73,0,0,0,.73-.73A.73.73,0,0,0,49.32,76.7Z"/><path class="cls-1" d="M45.7,79.6H45A.72.72,0,1,0,45,81h.72a.72.72,0,1,0,0-1.44Z"/><path class="cls-1" d="M49.32,79.6H48.6a.72.72,0,1,0,0,1.44h.72a.72.72,0,1,0,0-1.44Z"/><path class="cls-1" d="M67.43,83.94h-.72a.73.73,0,0,0-.73.73.73.73,0,0,0,.73.72h.72a.73.73,0,0,0,.73-.72A.73.73,0,0,0,67.43,83.94Z"/><path class="cls-1" d="M71.05,83.94h-.72a.73.73,0,0,0-.72.73.72.72,0,0,0,.72.72h.72a.73.73,0,0,0,.73-.72A.73.73,0,0,0,71.05,83.94Z"/><path class="cls-1" d="M74.68,83.94H74a.73.73,0,0,0-.72.73.72.72,0,0,0,.72.72h.73a.72.72,0,0,0,.72-.72A.73.73,0,0,0,74.68,83.94Z"/><path class="cls-1" d="M81.2,81h6.52a.72.72,0,0,0,0-1.44H81.2a.72.72,0,1,0,0,1.44Z"/><path class="cls-1" d="M81.2,83.94h6.52a.72.72,0,0,0,.72-.72.73.73,0,0,0-.72-.73H81.2a.73.73,0,0,0-.73.73A.73.73,0,0,0,81.2,83.94Z"/><path class="cls-1" d="M35.56,68a.72.72,0,0,0-.72.72v.72a.72.72,0,1,0,1.44,0v-.72A.72.72,0,0,0,35.56,68Z"/><path class="cls-1" d="M36.28,65.11a.72.72,0,1,0-1.44,0v.72a.72.72,0,1,0,1.44,0Z"/><path class="cls-1" d="M36.28,61.49a.72.72,0,1,0-1.44,0v.72a.72.72,0,1,0,1.44,0Z"/><path class="cls-1" d="M76.85,32.51a.72.72,0,0,0,.72-.72.73.73,0,0,0-.72-.73h-.72a.73.73,0,0,0-.73.73.73.73,0,0,0,.73.72Z"/><path class="cls-1" d="M73.23,32.51a.72.72,0,0,0,.72-.72.73.73,0,0,0-.72-.73H72.5a.73.73,0,0,0-.72.73.72.72,0,0,0,.72.72Z"/><path class="cls-1" d="M69.61,32.51a.72.72,0,0,0,.72-.72.73.73,0,0,0-.72-.73h-.73a.73.73,0,0,0-.72.73.72.72,0,0,0,.72.72Z"/><path class="cls-1" d="M66,32.51a.73.73,0,0,0,.73-.72.73.73,0,0,0-.73-.73h-.72a.73.73,0,0,0-.72.73.72.72,0,0,0,.72.72Z"/><path class="cls-1" d="M84.09,74.53a.73.73,0,0,0,.73.72.72.72,0,0,0,.72-.72V73.8a.72.72,0,0,0-.72-.72.73.73,0,0,0-.73.72Z"/><path class="cls-1" d="M84.09,70.9a.73.73,0,0,0,.73.73.73.73,0,0,0,.72-.73v-.72a.73.73,0,0,0-.72-.73.73.73,0,0,0-.73.73Z"/><path class="cls-1" d="M84.09,67.28a.73.73,0,0,0,.73.73.73.73,0,0,0,.72-.73v-.72a.73.73,0,0,0-.72-.73.73.73,0,0,0-.73.73Z"/><path class="cls-1" d="M84.09,63.66a.73.73,0,0,0,.73.72.72.72,0,0,0,.72-.72v-.72a.72.72,0,0,0-.72-.73.73.73,0,0,0-.73.73Z"/><path class="cls-1" d="M84.09,60a.73.73,0,0,0,.73.72.72.72,0,0,0,.72-.72v-.73a.72.72,0,0,0-.72-.72.73.73,0,0,0-.73.72Z"/><path class="cls-1" d="M84.09,56.42a.73.73,0,0,0,.73.72.72.72,0,0,0,.72-.72v-.73a.72.72,0,0,0-.72-.72.73.73,0,0,0-.73.72Z"/><path class="cls-1" d="M84.09,52.79a.73.73,0,0,0,.73.73.73.73,0,0,0,.72-.73v-.72a.73.73,0,0,0-.72-.73.73.73,0,0,0-.73.73Z"/><path class="cls-1" d="M84.82,49.9a.73.73,0,0,0,.72-.73v-.72a.73.73,0,0,0-.72-.73.73.73,0,0,0-.73.73v.72A.73.73,0,0,0,84.82,49.9Z"/><circle class="cls-2" cx="57.15" cy="57.15" r="56.15"/></g></g></svg>