<svg width="86" height="86" viewBox="0 0 86 86" fill="none" xmlns="http://www.w3.org/2000/svg">
<path d="M33.2578 57.6133V60.0488C33.2578 62.7391 35.4387 64.9199 38.1289 64.9199H43M33.2578 57.6133V55.1777C33.2578 52.4875 35.4387 50.3066 38.1289 50.3066H43M33.2578 57.6133H18.6445C15.9543 57.6133 13.7734 55.4324 13.7734 52.7422V50.3066M33.2578 28.3867V30.8223C33.2578 33.5125 35.4387 35.6934 38.1289 35.6934H43M33.2578 28.3867V25.9512C33.2578 23.2609 35.4387 21.0801 38.1289 21.0801H43M33.2578 28.3867H18.6445C15.9543 28.3867 13.7734 30.5676 13.7734 33.2578V35.6934M62.4844 74.6621V77.0977C62.4844 79.7879 64.6652 81.9688 67.3555 81.9688H77.0977C79.7879 81.9688 81.9688 79.7879 81.9688 77.0977V72.2266C81.9688 69.5363 79.7879 67.3555 77.0977 67.3555H67.3555C64.6652 67.3555 62.4844 69.5363 62.4844 72.2266V74.6621ZM62.4844 74.6621H47.8711C45.1809 74.6621 43 72.4812 43 69.791V64.9199M62.4844 43V45.4355C62.4844 48.1258 64.6652 50.3066 67.3555 50.3066H77.0977C79.7879 50.3066 81.9688 48.1258 81.9688 45.4355V40.5645C81.9688 37.8742 79.7879 35.6934 77.0977 35.6934H67.3555C64.6652 35.6934 62.4844 37.8742 62.4844 40.5645V43ZM62.4844 43H43M62.4844 11.3379V13.7734C62.4844 16.4637 64.6652 18.6445 67.3555 18.6445H77.0977C79.7879 18.6445 81.9688 16.4637 81.9688 13.7734V8.90234C81.9688 6.21211 79.7879 4.03125 77.0977 4.03125H67.3555C64.6652 4.03125 62.4844 6.21211 62.4844 8.90234V11.3379ZM62.4844 11.3379H47.8711C45.1809 11.3379 43 13.5188 43 16.209V21.0801M13.7734 35.6934H8.90234C6.21211 35.6934 4.03125 37.8742 4.03125 40.5645V45.4355C4.03125 48.1258 6.21211 50.3066 8.90234 50.3066H13.7734M13.7734 35.6934H18.6445C21.3348 35.6934 23.5156 37.8742 23.5156 40.5645V45.4355C23.5156 48.1258 21.3348 50.3066 18.6445 50.3066H13.7734M43 35.6934H47.8711C50.5613 35.6934 52.7422 33.5125 52.7422 30.8223V25.9512C52.7422 23.2609 50.5613 21.0801 47.8711 21.0801H43M43 35.6934V43M43 50.3066H47.8711C50.5613 50.3066 52.7422 52.4875 52.7422 55.1777V60.0488C52.7422 62.7391 50.5613 64.9199 47.8711 64.9199H43M43 50.3066V43" stroke="#000577" stroke-linecap="round" stroke-linejoin="round"/>
<path d="M4.03125 40.5645C4.03125 37.8742 6.21211 35.6934 8.90234 35.6934H18.6445C21.3348 35.6934 23.5156 37.8742 23.5156 40.5645V45.4355C23.5156 48.1258 21.3348 50.3066 18.6445 50.3066H8.90234C6.21211 50.3066 4.03125 48.1258 4.03125 45.4355V40.5645Z" fill="#56CCF2"/>
<path d="M33.2578 25.9512C33.2578 23.2609 35.4387 21.0801 38.1289 21.0801H47.8711C50.5613 21.0801 52.7422 23.2609 52.7422 25.9512V30.8223C52.7422 33.5125 50.5613 35.6934 47.8711 35.6934H38.1289C35.4387 35.6934 33.2578 33.5125 33.2578 30.8223V25.9512Z" fill="#56CCF2"/>
<path d="M62.4844 8.90234C62.4844 6.21211 64.6652 4.03125 67.3555 4.03125H77.0977C79.7879 4.03125 81.9688 6.21211 81.9688 8.90234V13.7734C81.9688 16.4637 79.7879 18.6445 77.0977 18.6445H67.3555C64.6652 18.6445 62.4844 16.4637 62.4844 13.7734V8.90234Z" fill="#56CCF2"/>
<path d="M62.4844 40.5645C62.4844 37.8742 64.6652 35.6934 67.3555 35.6934H77.0977C79.7879 35.6934 81.9688 37.8742 81.9688 40.5645V45.4355C81.9688 48.1258 79.7879 50.3066 77.0977 50.3066H67.3555C64.6652 50.3066 62.4844 48.1258 62.4844 45.4355V40.5645Z" fill="#56CCF2"/>
<path d="M33.2578 55.1777C33.2578 52.4875 35.4387 50.3066 38.1289 50.3066H47.8711C50.5613 50.3066 52.7422 52.4875 52.7422 55.1777V60.0488C52.7422 62.7391 50.5613 64.9199 47.8711 64.9199H38.1289C35.4387 64.9199 33.2578 62.7391 33.2578 60.0488V55.1777Z" fill="#56CCF2"/>
<path d="M62.4844 72.2266C62.4844 69.5363 64.6652 67.3555 67.3555 67.3555H77.0977C79.7879 67.3555 81.9688 69.5363 81.9688 72.2266V77.0977C81.9688 79.7879 79.7879 81.9688 77.0977 81.9688H67.3555C64.6652 81.9688 62.4844 79.7879 62.4844 77.0977V72.2266Z" fill="#56CCF2"/>
<path d="M4.03125 40.5645C4.03125 37.8742 6.21211 35.6934 8.90234 35.6934H18.6445C21.3348 35.6934 23.5156 37.8742 23.5156 40.5645V45.4355C23.5156 48.1258 21.3348 50.3066 18.6445 50.3066H8.90234C6.21211 50.3066 4.03125 48.1258 4.03125 45.4355V40.5645Z" stroke="#56CCF2" stroke-linecap="round" stroke-linejoin="round"/>
<path d="M33.2578 25.9512C33.2578 23.2609 35.4387 21.0801 38.1289 21.0801H47.8711C50.5613 21.0801 52.7422 23.2609 52.7422 25.9512V30.8223C52.7422 33.5125 50.5613 35.6934 47.8711 35.6934H38.1289C35.4387 35.6934 33.2578 33.5125 33.2578 30.8223V25.9512Z" stroke="#56CCF2" stroke-linecap="round" stroke-linejoin="round"/>
<path d="M62.4844 8.90234C62.4844 6.21211 64.6652 4.03125 67.3555 4.03125H77.0977C79.7879 4.03125 81.9688 6.21211 81.9688 8.90234V13.7734C81.9688 16.4637 79.7879 18.6445 77.0977 18.6445H67.3555C64.6652 18.6445 62.4844 16.4637 62.4844 13.7734V8.90234Z" stroke="#56CCF2" stroke-linecap="round" stroke-linejoin="round"/>
<path d="M62.4844 40.5645C62.4844 37.8742 64.6652 35.6934 67.3555 35.6934H77.0977C79.7879 35.6934 81.9688 37.8742 81.9688 40.5645V45.4355C81.9688 48.1258 79.7879 50.3066 77.0977 50.3066H67.3555C64.6652 50.3066 62.4844 48.1258 62.4844 45.4355V40.5645Z" stroke="#56CCF2" stroke-linecap="round" stroke-linejoin="round"/>
<path d="M33.2578 55.1777C33.2578 52.4875 35.4387 50.3066 38.1289 50.3066H47.8711C50.5613 50.3066 52.7422 52.4875 52.7422 55.1777V60.0488C52.7422 62.7391 50.5613 64.9199 47.8711 64.9199H38.1289C35.4387 64.9199 33.2578 62.7391 33.2578 60.0488V55.1777Z" stroke="#56CCF2" stroke-linecap="round" stroke-linejoin="round"/>
<path d="M62.4844 72.2266C62.4844 69.5363 64.6652 67.3555 67.3555 67.3555H77.0977C79.7879 67.3555 81.9688 69.5363 81.9688 72.2266V77.0977C81.9688 79.7879 79.7879 81.9688 77.0977 81.9688H67.3555C64.6652 81.9688 62.4844 79.7879 62.4844 77.0977V72.2266Z" stroke="#56CCF2" stroke-linecap="round" stroke-linejoin="round"/>
</svg>
